<svg width="504" height="504" viewBox="0 0 504 504" fill="none" xmlns="http://www.w3.org/2000/svg">
         <defs>
   <!-- Define the pattern -->
   <defs>
   <linearGradient id="Gradient2" x1="0" x2="0" y1="0" y2="1">
       <stop offset="0%" stop-color="#002957" />
       <stop offset="0.1%" stop-color="#002957" stop-opacity="0" />
       <stop offset="40%" stop-color="#002957" />
     </linearGradient>
    
     </defs>
 </defs>
  <style>
    <![CDATA[
      .loader {
        animation-name: rotate;
        animation-duration: .6s;
        animation-iteration-count: infinite;
        animation-timing-function: linear;
        transform-origin: center;
        transform-box: fill-box;
        fill: url(#Gradient2);
      }

      @keyframes rotate {
        100% { transform: rotate(360deg); }
      }
    ]]>
  </style>
       <g id="byu_medallion 1">
       <g id="Clip path group">
       <mask id="mask0_0_1" style="mask-type:luminance" maskUnits="userSpaceOnUse" x="4" y="5" width="492" height="492">
       <g id="clip-path">
       <path id="Vector" d="M496 5H4V497H496V5Z" fill="white"/>
       </g>
       </mask>
       <g mask="url(#mask0_0_1)">
       <g id="Group">
       <path id="Vector_2" d="M250 6.45999C115 6.45999 5.47 116 5.47 251C5.47 386 115 495.53 250 495.53C385 495.53 494.52 386 494.52 251C494.52 116 385.05 6.45999 250 6.45999Z" fill="white"/>
       <path id="Vector_3" d="M250 497C114.36 497 4 386.64 4 251C4 115.36 114.36 5 250 5C385.64 5 496 115.35 496 251C496 386.65 385.64 497 250 497ZM250 7.93C116 7.93 6.94 117 6.94 251C6.94 385 116 494.06 250 494.06C384 494.06 493.05 385 493.05 251C493.05 117 384 7.93 250 7.93Z" fill="#B79257"/>
      
       <path id="blueCircle" d="M260.16 18.14C131.61 12.53 22.82 112.19 17.21 240.77C11.6 369.35 111.28 478.1 239.83
       483.69C368.38 489.28 477.17 389.64 482.78 261.09C488.39 132.54 388.78 23.75 260.16 18.14Z"
       fill="#002957"/>
       <path id="Vector_4" d="M250 92C218.567 92 187.84 101.32 161.704 118.782C135.568 136.244 115.196 161.063 103.164 190.102C91.1328 219.141 87.9817 251.096 94.1096 281.926C100.237 312.755 115.369 341.076 137.591 363.306C159.813 385.537 188.128 400.679 218.956 406.819C249.783 412.958 281.739 409.819 310.782 397.799C339.826 385.778 364.653 365.416 382.125 339.286C399.596 313.156 408.928 282.433 408.94 251C408.948 230.123 404.843 209.448 396.859 190.158C388.875 170.867 377.169 153.339 362.409 138.574C347.649 123.808 330.125 112.096 310.838 104.104C291.55 96.1131 270.877 92 250 92Z" fill="white"/>
       <path id="Vector_5" d="M250 400.76C167.36 400.76 100.13 333.52 100.13 250.88C100.13 168.24 167.36 101 250 101C332.64 101 399.87 168.24 399.87 250.88C399.87 333.52 332.64 400.76 250 400.76ZM250 104C169 104 103.07 169.91 103.07 250.93C103.07 331.95 169 397.82 250 397.82C331 397.82 396.93 331.9 396.93 250.88C396.93 169.86 331 104 250 104Z" fill="#B79257"/>
       <path id="Vector_6" d="M221.41 363.85C219.93 363.85 217.57 363.85 216.51 363.99C216.3 364.06 216.4 363.32 216.51 363.32C218.7 363.07 219.65 363 219.65 360.07V351.18C219.65 348.25 218.65 348.18 216.51 347.9C216.4 347.9 216.3 347.19 216.51 347.26C217.57 347.4 219.93 347.4 221.41 347.4C222.47 347.4 224.8 347.4 225.55 347.26C225.76 347.19 225.72 347.9 225.62 347.9C223.32 348.11 222.51 348.42 222.51 351.18V360.07C222.51 362.83 223.32 363.07 225.62 363.32C225.72 363.32 225.76 364.06 225.55 363.99C224.8 363.88 222.47 363.85 221.41 363.85Z" fill="#002957"/>
       <path id="Vector_7" d="M232.39 358.56C232.39 355.94 234.39 353.68 237.79 352.27C235.53 350.83 233.63 349.27 233.63 346.59C233.63 342.88 236.63 340.31 240.44 340.31C243.62 340.31 246.23 342.56 246.23 345.46C246.23 347.93 244.75 349.59 241.85 351.14C244.36 352.7 246.72 354.46 246.72 357.57C246.72 361.38 243.65 364.38 239.24 364.38C235.57 364.38 232.39 361.98 232.39 358.56ZM235.11 358.56C235.08 359.173 235.176 359.787 235.392 360.362C235.607 360.937 235.939 361.461 236.365 361.903C236.791 362.346 237.303 362.696 237.87 362.933C238.437 363.169 239.046 363.288 239.66 363.28C242.59 363.28 244.29 361.45 244.29 359.08C244.29 356.08 241.57 354.53 238.92 352.94C236.42 354.18 235.11 355.84 235.11 358.56ZM236.17 345C236.17 347.58 238.39 349 240.79 350.48C241.668 350 242.402 349.295 242.917 348.438C243.432 347.58 243.709 346.6 243.72 345.6C243.757 345.06 243.683 344.518 243.504 344.007C243.326 343.496 243.045 343.027 242.679 342.628C242.314 342.229 241.871 341.908 241.378 341.685C240.885 341.462 240.351 341.341 239.81 341.33C239.322 341.304 238.835 341.381 238.379 341.556C237.924 341.732 237.511 342.002 237.167 342.348C236.823 342.695 236.556 343.111 236.385 343.568C236.213 344.025 236.14 344.513 236.17 345Z" fill="#002957"/>
       <path id="Vector_8" d="M255.51 369.22C259.68 362.22 263.63 355.06 266.35 350.12H259.11C255.76 350.12 255.19 350.69 255.05 352.84C255.05 352.91 254.42 352.91 254.42 352.84C254.421 351.187 254.537 349.536 254.77 347.9C254.88 347.51 255.02 347.34 255.44 347.34C256.57 347.34 258.87 347.44 261.12 347.44C264.19 347.44 265.96 347.44 268.18 347.26C268.33 347.26 268.75 348 268.64 348.18C265.43 354.04 260.53 363.36 257.14 369.93C256.96 370.24 255.3 369.57 255.51 369.26" fill="#002957"/>
       <path id="Vector_9" d="M278 349.34C277 349.34 276.2 350.61 276.2 351.85C276.2 352.94 276.55 353.54 280.86 355.59C284 357.07 285.38 359.22 285.38 361.59C285.38 365.4 281.85 368.59 275.11 369.92C274.9 369.92 274.82 369.28 274.9 369.28C278.64 368.33 282.52 366.11 282.52 362.5C282.52 360.5 281.67 359.22 278.57 357.81C275.99 356.65 274.65 355.62 274.65 353.64C274.74 352.478 274.999 351.336 275.42 350.25C276.52 347.64 277.54 346.62 278.88 346.62C280.01 346.62 281.57 347.57 283.4 347.57C284.25 347.57 284.57 347.08 284.88 345.67C284.88 345.59 285.52 345.56 285.52 345.74C285.45 349.2 284.46 350.36 282.84 350.36C281 350.36 279.66 349.3 278 349.3" fill="#002957"/>
       <g id="Loading" class="rotate" filter="url(#filter0_d_0_1)">
       <path id="Vector_10" d="M76.5195 343.097L74.0322 352.38L83.3148 354.867L85.8021 345.584L76.5195 343.097Z" fill="white"/>
       <path id="Vector_11" d="M77.75 310.88C78.4095 313.077 79.1873 315.237 80.08 317.35C80.3 317.86 79.14 317.89 79.08 317.73C77.58 314.34 76.77 314.01 71.71 315.64L59.71 319.52C54.71 321.15 54.19 321.89 54.9 325.52C54.9 325.68 53.9 326.3 53.9 325.74C53.5118 323.721 52.9668 321.735 52.27 319.8C51.96 318.8 50.96 316.29 50.54 314.96C49.08 310.44 49.87 305.6 53.85 304.31C56.09 303.59 59.22 304.93 61.1 307.67C59.9 303.01 61.54 299.19 65 298.08C69.47 296.63 74.39 299.69 76.34 305.75C76.77 307.08 77.49 309.84 77.81 310.86M62.49 312.86C60.92 308.02 58.88 307.33 56.01 308.26C52.07 309.53 51.3 312.07 52.4 315.47C52.57 316 52.7 316.02 52.89 316.61C54.7596 316.337 56.5938 315.861 58.36 315.19L70.54 311.26C74.85 309.87 75.79 309.69 74.83 306.71C73.41 302.29 71.12 300.86 67.4 302.06C63.51 303.31 61.31 307.06 63.71 312.47C63.76 312.63 62.54 313.03 62.49 312.86Z" fill="white"/>
       <path id="Vector_12" d="M58.28 281.71C58.3719 282.243 58.432 282.78 58.46 283.32L63.1 282.64C68.1 281.89 69.02 281.36 68.79 277.55C68.79 277.39 69.91 277.1 69.85 277.45C69.9677 279.423 70.1847 281.389 70.5 283.34C70.7903 285.654 71.2076 287.951 71.75 290.22C71.91 290.54 70.75 290.54 70.75 290.38C69.82 286.84 69.06 286.28 63.81 287.06L51.32 288.92C46.51 289.63 45.59 290.67 45.87 292.61C45.9604 293.127 46.0942 293.635 46.27 294.13C46.41 294.34 45.4 294.77 45.27 294.45C44.45 292.76 43.5 287.87 42.83 283.34C41.72 275.87 43.5 271.54 47.93 270.88C50.69 270.47 53.69 272.06 55.56 275.12C60.87 272.06 67.72 265.68 67.01 260.87C67.01 260.7 68.01 260.38 68.06 260.71C69.4 269.78 63.76 275.87 57.5 278.71C57.8351 279.69 58.1024 280.693 58.3 281.71M44.81 285C46.6249 285.036 48.4385 284.878 50.22 284.53L56.85 283.53C56.78 283.04 56.79 282.7 56.68 281.98C55.87 276.5 53.45 274.66 49.68 275.22C45.03 275.91 43.77 278.81 44.48 283.62C44.557 284.083 44.6639 284.541 44.8 284.99" fill="white"/>
       <path id="Vector_13" d="M67.7 251.4C67.6615 253.736 67.7483 256.073 67.96 258.4C68.08 258.85 66.9 258.58 66.9 258.47C66.49 254.78 65.76 254.23 60.5 254.25L47.87 254.33C42.56 254.33 41.87 254.92 41.47 258.61C41.47 258.72 40.35 258.95 40.4 258.51C40.6443 256.205 40.7245 253.886 40.64 251.57C40.637 249.613 40.5335 247.657 40.33 245.71C40.27 245.26 41.39 245.48 41.39 245.59C41.7 249.44 42.87 249.83 47.85 249.8L60.48 249.73C65.48 249.73 66.48 249.3 66.83 245.45C66.83 245.33 67.94 245.1 67.89 245.55C67.73 246.84 67.69 249.74 67.7 251.42" fill="white"/>
       <path id="Vector_14" d="M69 212.42C70.5101 216.053 71.0444 220.017 70.55 223.92C69.22 233.5 61.98 238.47 54.78 237.47C47.2 236.41 40.86 228.81 42.19 219.29C42.74 215.36 45.19 211.29 45.99 210.67C46.31 210.38 49.91 210.49 52.48 211.07C52.76 211.07 52.48 212.15 52.39 212.13C49.09 211.9 44.56 214.88 43.76 220.58C42.9 226.78 46.41 231.58 53.88 232.58C62.88 233.84 68.02 229.13 68.88 223.16C69.48 218.84 68.52 218.03 67.95 217.72C67.1073 217.394 66.2271 217.176 65.33 217.07C60.01 216.33 59.77 216.47 58.82 220.85C58.82 221.01 57.67 221.03 57.82 220.7C58.23 218.95 58.77 215.87 59.11 213.43C59.35 211.72 59.64 209.22 59.66 207.92C59.59 207.57 60.66 207.84 60.66 208.01C60.47 211.82 60.97 211.89 66.23 212.62C67.1755 212.892 68.1874 212.814 69.08 212.4" fill="white"/>
       <path id="Vector_15" d="M79.26 187.28C79.26 187.56 78.2 187.09 78.26 186.93C78.96 183.74 78.43 182.93 73.52 181.19L68.13 179.31L63.2 193.46L68.59 195.33C73.23 196.96 74.48 196.92 75.85 193.84C75.91 193.69 77.05 193.97 76.85 194.25C76.25 195.46 75.39 197.76 74.85 199.45C73.9969 201.744 73.2626 204.08 72.65 206.45C72.65 206.8 71.59 206.26 71.65 206.1C72.58 201.92 72.18 201.37 67.17 199.62L55.24 195.46C50.24 193.71 49.46 193.86 47.64 197.73C47.59 197.88 46.44 197.6 46.64 197.32C47.6644 195.121 48.5494 192.86 49.29 190.55C49.9059 188.787 50.4332 186.995 50.87 185.18C50.87 184.83 51.95 185.32 51.87 185.48C51.03 188.74 51.99 189.55 56.69 191.19L61.69 192.93L66.62 178.79L61.62 177.04C56.62 175.31 55.62 175.62 54.28 178.57C54.22 178.73 53.08 178.45 53.23 178.2C54.194 176.238 55.0161 174.21 55.69 172.13C56.3 170.39 57.26 167.3 57.53 166.03C57.53 165.67 58.64 166.03 58.53 166.32C57.41 170.55 58.34 171.11 63.09 172.77L75 176.91C79.75 178.57 80.72 178.67 82.52 174.69C82.61 174.42 83.72 174.81 83.52 175.09C82.94 176.25 81.82 179.29 81.21 181.03C80.4439 183.074 79.7962 185.161 79.27 187.28" fill="white"/>
       <path id="Vector_16" d="M93.85 157C93.77 157.35 92.85 156.62 92.93 156.47C93.69 154.71 94.52 153.84 93.55 153.28C92.58 152.72 90.48 152.33 88.28 151.89L85.22 151.27L80.66 159.1L82.58 161.7C84.17 163.86 85.26 165.2 86.23 165.76C87.05 166.24 87.59 165.32 88.63 163.86C88.77 163.62 89.78 164.21 89.52 164.44C88.5708 165.737 87.6992 167.09 86.91 168.49C86.0856 169.803 85.3699 171.181 84.77 172.61C84.65 172.93 83.77 172.22 83.85 172.08C85.06 169.55 84.49 167.53 81.5 163.34L68.62 145.12C68.44 144.88 68.62 144.37 69.02 144.44L90.6 147.68C94.9 148.3 97.08 148.68 99.39 145.36C99.48 145.21 100.55 145.7 100.28 145.94C99.1995 147.461 98.1982 149.036 97.28 150.66C96.0256 152.711 94.8806 154.828 93.85 157ZM79.55 157.68L83.46 151L73.6 149.28L79.55 157.68Z" fill="white"/>
       <path id="Vector_17" d="M118 125.17C117.86 125.5 117 124.64 117.17 124.51C119.07 121.87 118.86 120.93 114.9 117.51L103.77 107.9L113.9 129.64C114.03 129.91 113.58 130.33 113.34 130.27L90.26 123.7L100.76 133.35C104.1 136.4 105.45 137.15 108.23 134.53C108.34 134.41 109.29 135.1 108.98 135.28C107.847 136.306 106.775 137.398 105.77 138.55C104.407 140.011 103.134 141.553 101.96 143.17C101.82 143.5 101.06 142.59 101.17 142.47C103.33 139.47 102.82 138.25 99.31 134.97L88.51 124.97C87.09 123.63 84.28 123.68 81.91 125.83C81.8 125.96 80.85 125.34 81.16 125.16C83.3592 123.089 85.4392 120.896 87.39 118.59L109.76 124.72L103.55 112C102.455 109.463 101.199 106.998 99.79 104.62C101.929 102.44 103.898 100.1 105.68 97.62C105.82 97.3 106.58 98.13 106.51 98.21C103.87 101.77 104.43 102.65 108.26 105.91L117.85 114.14C121.68 117.4 122.69 117.77 125.85 114.78C125.97 114.66 126.92 115.35 126.61 115.53C125.61 116.42 123.43 118.76 122.24 120.1C120.743 121.71 119.338 123.403 118.03 125.17" fill="white"/>
       <path id="Vector_18" d="M146.74 84.1L150.2 89.52C153.4 94.52 153.83 94.36 157.2 92.59C157.34 92.51 158.06 93.43 157.72 93.52C156.5 94.1 154.12 95.52 152.61 96.52C150.619 97.7526 148.693 99.0877 146.84 100.52C146.62 100.79 146.13 99.71 146.27 99.62C149.09 97.29 149.71 97.22 146.37 92L143.27 87.15L137 84.23C130.31 81.14 129 80.93 125.84 82.55C125.7 82.64 124.92 81.74 125.26 81.65C127.169 80.6692 129.019 79.5774 130.8 78.38C132.3 77.38 134.58 75.89 135.58 75.05C135.8 74.78 136.34 75.83 136.19 75.92C133.28 78.11 134.44 78.57 140.93 81.45L145 83.28L145.29 77.52C145.66 70.52 145.29 70.52 142.2 72.06C142.06 72.15 141.2 71.29 141.68 71.14C143.458 70.2493 145.178 69.2473 146.83 68.14C148.023 67.4084 149.163 66.593 150.24 65.7C150.47 65.42 151.01 66.47 150.86 66.56C147.95 68.75 147.53 69.96 147.15 76.63L146.74 84.1Z" fill="white"/>
       <path id="Vector_19" d="M162.31 75.32C159.42 68.22 163 59.05 171.49 55.6C179.49 52.36 188.03 56.06 190.78 62.84C193.64 69.84 190.12 79.04 181.58 82.51C173.66 85.73 165.06 82.1 162.31 75.32ZM166 71.89C169.45 80.39 176.68 82.58 181.86 80.47C187.4 78.22 190.05 73.17 187.23 66.23C183.78 57.73 176.46 55.46 171.23 57.56C165.69 59.81 163.11 64.9 165.95 71.89" fill="white"/>
       <path id="Vector_20" d="M225.33 59.78C226.42 65.38 223.11 70.91 215.76 72.34C209.39 73.58 203.18 70.63 201.9 64.05L200 54.39C199 49.18 198.25 48.58 194.6 48.84C194.43 48.84 194.11 47.84 194.46 47.84C196.765 47.6231 199.053 47.2557 201.31 46.74C203.06 46.4 205.79 45.81 207.08 45.39C207.39 45.21 207.6 46.31 207.33 46.39C203.66 47.45 203.54 48.61 204.5 53.55L206.2 62.27C207.45 68.69 212.2 70.73 216.4 69.91C221.94 68.83 224.27 65.31 223.17 59.65L221.27 49.89C220.35 45.17 219.59 44.46 215.94 44.72C215.65 44.72 215.45 43.72 215.8 43.72C217.627 43.5969 219.44 43.3193 221.22 42.89C222.835 42.5941 224.431 42.2034 226 41.72C226.43 41.58 226.41 42.66 226.3 42.72C222.58 43.79 222.49 45.06 223.3 49.5L225.33 59.78Z" fill="white"/>
       <path id="Vector_21" d="M264.32 61.13C264.32 63.2 264.32 67 264.54 68.79C264.54 68.96 263.87 69.18 263.54 68.79L242.85 47.5L242.75 61C242.75 65.47 243.09 67 246.95 67.4C247.06 67.4 247.16 68.58 246.83 68.46C245.327 68.2844 243.814 68.2009 242.3 68.21C240.298 68.1431 238.295 68.1999 236.3 68.38C236.02 68.44 236.14 67.32 236.3 67.32C239.99 66.96 240.56 65.73 240.6 60.98L240.71 46.62C240.71 44.72 237.22 42.12 235.32 41.88C235.15 41.88 235.05 40.71 235.38 40.82C237.83 41.1028 240.294 41.2331 242.76 41.21L262.11 61.54L262.21 48.54C262.21 43.74 261.7 42.54 258.07 42.08C257.79 42.02 257.8 40.91 258.13 41.02C259.961 41.2852 261.811 41.3923 263.66 41.34C265.303 41.3642 266.947 41.2841 268.58 41.1C269.14 41.1 268.85 42.16 268.74 42.16C264.83 42.41 264.48 44.09 264.45 48.56L264.32 61.13Z" fill="white"/>
       <path id="Vector_22" d="M298.9 72C295.189 73.3079 291.199 73.6183 287.33 72.9C277.84 71.02 273.33 63.51 274.7 56.39C276.19 48.88 284.14 42.98 293.57 44.85C297.46 45.62 301.37 48.33 301.95 49.13C302.23 49.47 301.95 53.06 301.18 55.59C301.13 55.87 300.11 55.59 300.13 55.44C300.55 52.16 297.84 47.44 292.19 46.35C286.05 45.13 281.08 48.35 279.61 55.76C277.84 64.7 282.25 70.07 288.17 71.25C292.45 72.09 293.31 71.18 293.65 70.62C294.022 69.7961 294.29 68.9296 294.45 68.04C295.45 62.78 295.37 62.53 291.04 61.33C290.88 61.33 290.93 60.17 291.25 60.33C292.97 60.84 296.02 61.56 298.43 62.04C300.241 62.4153 302.07 62.699 303.91 62.89C304.26 62.89 303.91 63.89 303.76 63.89C299.97 63.48 299.88 63.98 298.84 69.18C298.524 70.0972 298.545 71.097 298.9 72Z" fill="white"/>
       <path id="Vector_23" d="M346.35 83.81C343.82 88.92 337.83 91.32 331.12 88C325.31 85.13 322.12 79 325.12 73L329.48 64.18C331.84 59.43 331.61 58.5 328.55 56.49C328.4 56.42 328.8 55.36 329.05 55.61C331.013 56.8351 333.054 57.9308 335.16 58.89C336.76 59.68 339.29 60.89 340.57 61.32C340.92 61.32 340.42 62.32 340.17 62.24C336.62 60.85 335.82 61.71 333.59 66.24L329.65 74.24C326.75 80.1 329.27 84.59 333.12 86.5C338.19 89.01 342.18 87.61 344.73 82.5L349.14 73.59C351.28 69.28 351.14 68.25 348.04 66.24C347.81 66.07 348.29 65.12 348.54 65.37C350.063 66.38 351.669 67.2598 353.34 68C354.789 68.7472 356.278 69.4149 357.8 70C358.23 70.15 357.56 71 357.46 71C353.85 69.59 353.01 70.55 351 74.61L346.35 83.81Z" fill="white"/>
       <path id="Vector_24" d="M376.54 108.56C375.27 110.19 372.98 113.23 372.06 114.78C371.96 114.91 371.29 114.67 371.23 114.2L367.75 84.69L359.49 95.33C356.75 98.86 356.1 100.33 358.94 102.96C359.03 103.03 358.4 104.03 358.2 103.74C357.117 102.67 355.968 101.668 354.76 100.74C353.2 99.4682 351.563 98.2927 349.86 97.22C349.6 97.09 350.38 96.28 350.51 96.38C353.66 98.38 354.86 97.7 357.77 93.95L366.58 82.6C367.74 81.1 366.58 76.91 365.17 75.6C365.04 75.5 365.67 74.5 365.87 74.79C367.638 76.5062 369.515 78.1062 371.49 79.58L374.49 107.48L382.49 97.2C385.44 93.4 385.75 92.09 383.12 89.55C382.94 89.33 383.62 88.45 383.82 88.74C385.112 90.0664 386.517 91.2777 388.02 92.36C389.315 93.3723 390.671 94.304 392.08 95.15C392.55 95.45 391.65 96.15 391.56 96.15C388.3 93.97 387 95.09 384.26 98.62L376.54 108.56Z" fill="white"/>
       <path id="Vector_25" d="M384 126.51C382.446 124.754 380.797 123.085 379.06 121.51C378.68 121.26 379.72 120.66 379.8 120.74C382.61 123.17 383.52 123.08 387.36 119.49L396.58 110.86C400.46 107.24 400.58 106.33 398.38 103.37C398.3 103.29 398.97 102.37 399.23 102.73C400.619 104.581 402.133 106.335 403.76 107.98C404.9 109.21 406.97 111.25 407.97 112.08C408.32 112.36 407.35 112.97 407.27 112.88C404.43 110.26 403.27 110.77 399.68 114.17L390.45 122.8C386.82 126.2 386.31 127.21 388.7 130.25C388.77 130.34 388.11 131.25 387.85 130.9C387.09 129.9 385.14 127.68 384 126.46" fill="white"/>
       <path id="Vector_26" d="M400.4 147.77C400.23 147.77 399.76 147.33 399.93 147L411.49 128.19C414.1 123.92 414.7 121.94 413.01 119.03C412.92 118.89 413.78 118.03 413.88 118.42C414.51 119.62 415.88 121.74 416.88 123.17C418.202 125.18 419.655 127.101 421.23 128.92C421.51 129.13 420.59 129.77 420.39 129.58C419.15 128.19 418.45 127.38 417.54 128.02C416.202 129.122 415.1 130.482 414.3 132.02L406.45 144.91L421.23 141.97C424.56 141.28 425.3 140.97 426.13 140.4C426.96 139.83 426.67 138.93 425.75 137.32C425.66 137.18 426.53 136.37 426.62 136.71C427.375 138.13 428.217 139.503 429.14 140.82C429.971 142.133 430.936 143.356 432.02 144.47C432.31 144.68 431.28 145.26 431.18 145.12C429.45 143.12 427.54 142.62 422.25 143.64L400.4 147.77Z" fill="white"/>
       <path id="Vector_27" d="M418.7 180.19C418.02 178.78 417.08 176.32 415.7 173.5C413.86 169.67 411.7 165.08 410.1 162.36C409.95 162.06 410.98 161.75 411.05 161.9C413.35 165.51 414.05 165.62 418.81 163.32L430.19 157.85C434.98 155.55 435.41 154.91 433.98 150.85C433.91 150.69 434.89 150.03 434.98 150.36C436.08 153.3 438.16 157.76 439.98 161.59C441.28 164.31 442.65 166.88 443.98 169.1C443.025 169.306 442.103 169.642 441.24 170.1C440.84 170.29 439.7 170.78 439.48 170.95C439.26 171.12 438.87 170.06 438.97 170.01C440.48 168.91 440.97 167.92 438.65 163.01L437.08 159.74C435.454 160.291 433.869 160.959 432.34 161.74L427.71 163.97L428.92 166.49C430.92 170.72 431.2 170.98 433.01 170.61C433.11 170.61 433.62 171.49 433.34 171.61C432.281 171.925 431.253 172.337 430.27 172.84L428.11 173.84C428.11 173.96 427.55 172.93 427.59 172.9C429.39 171.61 429.39 171.23 427.46 167.2L426.25 164.68L421.25 167.08C416.42 169.4 416.08 169.87 416.91 171.58L417.85 173.58C420.63 179.37 421.51 179.14 424.25 178.51C424.3 178.51 424.78 179.51 424.63 179.56C423.63 179.87 420.94 180.65 420.06 180.77C419.18 180.89 418.96 180.77 418.65 180.14" fill="white"/>
       <path id="Vector_28" d="M436.16 193.61C435.989 193.096 435.852 192.572 435.75 192.04L431.25 193.37C426.43 194.8 425.57 195.46 426.33 199.2C426.38 199.36 425.33 199.8 425.33 199.45C425.12 198.17 424.33 195.45 423.86 193.71C423.246 191.46 422.515 189.244 421.67 187.07C421.46 186.78 422.67 186.61 422.67 186.77C424.07 190.14 424.9 190.59 430 189.09L442.11 185.51C446.77 184.13 447.54 182.97 446.98 181.09C446.822 180.59 446.621 180.105 446.38 179.64C446.21 179.46 447.15 178.89 447.3 179.19C448.3 180.75 449.96 185.46 451.3 189.85C453.44 197.09 452.3 201.63 447.99 202.85C445.31 203.65 442.11 202.49 439.84 199.73C435.01 203.49 429.11 210.73 430.49 215.43C430.54 215.59 429.57 216.06 429.49 215.73C426.89 206.94 431.63 200.12 437.43 196.48C436.957 195.54 436.553 194.568 436.22 193.57M449 188.47C447.197 188.677 445.423 189.083 443.71 189.68L437.28 191.58C437.42 192.07 437.47 192.4 437.67 193.1C439.24 198.41 441.89 199.89 445.54 198.82C450.04 197.49 450.89 194.44 449.54 189.82C449.4 189.376 449.229 188.941 449.03 188.52" fill="white"/>
       <path id="Vector_29" d="M432.22 217.2C432.36 216.96 435.48 216.7 438.44 216.45C438.72 216.45 438.74 217.45 438.63 217.45C434.47 218.37 431.46 221.05 432.06 225.36C432.48 228.36 434.53 230.16 437.19 229.79C444.11 228.79 442.42 216.64 450 215.59C453.82 215.06 458.23 217.94 458.94 223.03C459.22 224.951 458.943 226.912 458.14 228.68C457.97 229.04 455.76 229.8 452.94 230.19C452.77 230.19 452.61 229.11 452.78 229.08C455.78 228.16 457.58 225.88 457.17 222.89C456.8 220.28 455.26 218.52 452.71 218.89C446.07 219.81 447.9 231.75 439.93 232.89C438.789 233.046 437.628 232.971 436.517 232.669C435.406 232.368 434.366 231.845 433.461 231.133C432.556 230.421 431.803 229.534 431.248 228.525C430.693 227.516 430.347 226.406 430.23 225.26C429.89 222.438 430.602 219.59 432.23 217.26" fill="white"/>
       <path id="Vector_30" d="M432.84 248.14C432.847 245.802 432.731 243.465 432.49 241.14C432.38 240.7 433.55 240.96 433.56 241.07C434.01 244.75 434.75 245.3 440 245.21L452.63 244.99C457.94 244.91 458.63 244.33 458.98 240.64C458.98 240.53 460.1 240.28 460.05 240.73C459.838 243.037 459.781 245.355 459.88 247.67C459.88 249.34 460.07 252.25 460.26 253.53C460.33 253.98 459.21 253.77 459.2 253.66C458.86 249.81 457.68 249.44 452.71 249.52L440.07 249.74C435.07 249.82 434.07 250.23 433.78 254.09C433.78 254.2 432.66 254.45 432.71 254C432.86 252.71 432.86 249.8 432.84 248.13" fill="white"/>
       <path id="Vector_31" d="M451.39 289.83C451.23 289.83 451.39 288.83 451.52 288.83C453.4 288.67 454.85 287.39 455.4 282.95L455.85 279.29L438.27 277.11C433.34 276.5 432.27 276.7 431.43 280.54C431.43 280.71 430.28 280.68 430.43 280.24C430.76 278.99 431.16 276.17 431.38 274.39C431.715 272.12 431.926 269.833 432.01 267.54C431.95 267.08 433.09 267.45 433.07 267.62C433 271.33 433.65 271.97 438.87 272.62L456.45 274.8L456.93 270.92C457.47 266.65 456.45 264.83 454.58 264.04C454.58 263.81 454.65 262.97 454.81 263.04C456.167 263.398 457.547 263.662 458.94 263.83C459.665 263.94 460.401 263.956 461.13 263.88C461.3 263.88 461.23 264.88 461.06 264.88C459.69 265.05 459.62 265.16 458.88 271.15L457.38 283.15C456.65 289.09 456.61 289.37 457.96 289.87C458.12 289.95 457.96 290.99 457.72 290.87C456.53 290.468 455.299 290.199 454.05 290.07C453.38 289.99 451.99 289.82 451.43 289.8" fill="white"/>
       <path id="Vector_32" d="M437.29 310.44L431.14 308.57C425.47 306.84 425.24 307.24 423.81 310.78C423.76 310.94 422.6 310.7 422.81 310.41C423.36 309.18 424.22 306.52 424.75 304.81C425.474 302.593 426.081 300.34 426.57 298.06C426.57 297.71 427.63 298.21 427.57 298.37C426.94 301.98 426.51 302.43 432.45 304.24L437.96 305.91L444.61 304.03C451.7 302.03 452.85 301.33 454.19 298.03C454.24 297.87 455.41 298.03 455.19 298.34C454.375 300.328 453.677 302.361 453.1 304.43C452.58 306.14 451.84 308.77 451.62 310.05C451.62 310.41 450.54 309.96 450.62 309.8C451.41 306.24 450.24 306.64 443.43 308.66L439.13 309.92L442.65 314.5C446.91 320.06 447.17 319.79 448.54 316.64C448.54 316.48 449.78 316.64 449.54 317C448.757 318.843 448.089 320.734 447.54 322.66C447.111 323.991 446.777 325.351 446.54 326.73C446.54 327.09 445.45 326.64 445.54 326.48C446.33 322.92 445.88 321.73 441.83 316.41L437.29 310.44Z" fill="white"/>
       <path id="Vector_33" d="M426.659 342.799L417.347 345.295L419.846 354.617L429.158 352.121L426.659 342.799Z" fill="white"/>
       <path id="Vector_34" d="M102.92 384.8C102.81 384.67 103.55 384 103.66 384.12L104 384.49C106.6 387.34 109.87 387.61 113.18 384.6C116.31 381.74 116.3 378.73 113.7 375.88C113.44 375.59 112.7 374.97 112.3 374.59C110.735 375.616 109.287 376.81 107.98 378.15L98.64 386.66C94.92 390 94.4 391 96.72 394C96.83 394.13 96.04 395 95.89 394.68C95.15 393.62 93.27 391.47 92.07 390.15C90.5476 388.401 88.9354 386.732 87.24 385.15C86.85 384.89 87.91 384.31 88.02 384.43C90.79 386.9 91.67 386.86 95.59 383.28L104.93 374.77C108.81 371.23 108.93 370.33 106.82 367.3C106.7 367.18 107.34 366.22 107.56 366.63C108.799 368.284 110.135 369.863 111.56 371.36C112.24 372.1 114.32 374.14 115.34 375.26C119.14 379.43 120.09 384.54 116.83 387.51C113.19 390.82 107.69 390.01 103.29 385.18L102.91 384.77" fill="white"/>
       <path id="Vector_35" d="M125.34 405.66C124.903 405.338 124.489 404.988 124.1 404.61L121.19 408.29C118.07 412.24 117.75 413.29 120.52 415.89C120.65 416 120.01 416.99 119.82 416.69C118.91 415.76 116.71 413.95 115.31 412.84C113.513 411.353 111.637 409.965 109.69 408.68C109.36 408.56 110.22 407.74 110.35 407.85C113.44 409.79 114.35 409.68 117.68 405.52L125.52 395.61C128.52 391.8 128.52 390.41 126.96 389.2C126.544 388.879 126.099 388.598 125.63 388.36C125.38 388.31 125.82 387.3 126.12 387.47C127.87 388.14 131.91 391.05 135.5 393.89C141.42 398.57 143.08 402.96 140.31 406.46C138.58 408.65 135.31 409.55 131.85 408.6C130.06 414.46 129.44 423.8 133.25 426.82C133.38 426.93 132.86 427.82 132.6 427.65C125.41 421.97 125.35 413.65 128 407.34C127.073 406.846 126.184 406.284 125.34 405.66ZM132.89 394C131.541 395.198 130.327 396.539 129.27 398L125.1 403.26C125.5 403.57 125.73 403.82 126.3 404.26C130.64 407.69 133.66 407.38 136.02 404.4C138.93 400.71 137.87 397.74 134.02 394.72C133.646 394.437 133.255 394.177 132.85 393.94" fill="white"/>
       <path id="Vector_36" d="M146 419.54C149.51 412.74 158.8 409.48 166.95 413.68C174.6 417.62 177.36 426.53 174.01 433.04C170.52 439.8 161.28 443.04 153.09 438.85C145.49 434.93 142.65 426.05 146 419.54ZM151 420.1C146.79 428.25 149.83 435.16 154.8 437.72C160.11 440.47 165.68 439.19 169.11 432.53C173.31 424.38 170.28 417.35 165.31 414.78C160 412 154.42 413.4 151 420.1Z" fill="white"/>
       <path id="Vector_37" d="M191.48 453.83C191.38 453.98 190.71 453.9 190.64 453.53L187.89 431.63C187.25 426.63 186.48 424.74 183.34 423.53C183.18 423.53 183.34 422.31 183.64 422.53C185.367 423.235 187.129 423.849 188.92 424.37C191.211 425.116 193.55 425.707 195.92 426.14C196.27 426.14 195.92 427.2 195.67 427.14C193.84 426.83 192.79 426.64 192.47 427.71C192.115 429.393 192.098 431.13 192.42 432.82L194.42 447.82L204.11 436.28C206.28 433.66 206.66 432.95 206.94 431.99C207.22 431.03 206.45 430.5 204.73 429.82C204.57 429.77 204.73 428.6 205.03 428.82C206.504 429.458 208.017 430.003 209.56 430.45C211.03 430.944 212.549 431.279 214.09 431.45C214.44 431.45 214 432.53 213.84 432.45C211.24 431.98 209.43 432.79 205.95 436.89L191.48 453.83Z" fill="white"/>
       <path id="Vector_38" d="M215.68 446.14C216.41 438.52 223.83 432.04 232.96 432.92C241.52 433.74 247.4 440.99 246.69 448.28C245.97 455.84 238.61 462.28 229.43 461.44C220.92 460.62 214.98 453.44 215.68 446.14ZM220.53 444.81C219.65 453.93 225.04 459.22 230.6 459.76C236.6 460.33 241.24 457.07 241.96 449.62C242.84 440.5 237.41 435.09 231.84 434.55C225.84 433.98 221.25 437.3 220.53 444.81Z" fill="white"/>
       <path id="Vector_39" d="M250.87 467C254.45 466.93 255.32 465.35 255.29 464C255.29 463.05 254.65 462.5 253.29 461.85C252.21 461.37 251.7 460.93 251.69 459.98C251.695 459.724 251.751 459.472 251.855 459.239C251.959 459.005 252.108 458.794 252.295 458.619C252.481 458.444 252.7 458.308 252.94 458.219C253.18 458.13 253.435 458.089 253.69 458.1C255.48 458.1 257.41 459.54 257.46 462.28C257.51 465.52 254.76 468.03 250.91 468.1C250.57 468.1 250.72 467.04 250.83 467.04" fill="white"/>
       <path id="Vector_40" d="M309.48 443.49C310.81 449.03 307.76 454.72 300.48 456.49C294.18 458.01 287.84 455.34 286.26 448.82L284 439.25C282.76 434.09 282 433.53 278.35 433.94C278.19 433.94 277.82 432.94 278.17 432.94C280.461 432.614 282.729 432.143 284.96 431.53C286.7 431.1 289.4 430.39 290.67 429.92C290.97 429.73 291.23 430.82 290.96 430.92C287.34 432.14 287.28 433.3 288.46 438.2L290.55 446.83C292 453.17 296.84 455 301 454C306.48 452.67 308.65 449 307.3 443.44L305 433.77C303.87 429.09 303.07 428.42 299.44 428.84C299.15 428.84 298.9 427.84 299.25 427.84C301.07 427.637 302.87 427.279 304.63 426.77C306.214 426.416 307.774 425.961 309.3 425.41C309.73 425.25 309.76 426.34 309.65 426.36C305.98 427.59 305.94 428.87 307.01 433.27L309.48 443.49Z" fill="white"/>
       <path id="Vector_41" d="M341.58 416.92C341.65 417.07 340.71 417.44 340.67 417.34C339.54 415.83 337.67 415.27 333.62 417.14L330.27 418.68L337.67 434.77C339.75 439.29 340.5 440.12 344.19 438.77C344.34 438.7 344.91 439.67 344.48 439.77C343.25 440.16 340.63 441.3 339.01 442.05C336.901 442.958 334.845 443.983 332.85 445.12C332.49 445.41 332.21 444.25 332.36 444.18C335.55 442.28 335.75 441.39 333.56 436.61L326.15 420.52L322.6 422.15C318.69 423.95 317.68 425.77 317.99 427.78C317.81 427.93 317.05 428.28 316.99 428.1C316.577 426.758 316.076 425.446 315.49 424.17C315.196 423.501 314.824 422.87 314.38 422.29C314.26 422.16 315.15 421.69 315.27 421.82C316.13 422.9 316.27 422.9 321.74 420.38L332.74 415.31C338.18 412.81 338.43 412.69 338.15 411.31C338.15 411.14 339.15 410.74 339.15 410.99C339.442 412.215 339.865 413.405 340.41 414.54C340.69 415.15 341.27 416.42 341.56 416.9" fill="white"/>
       <path id="Vector_42" d="M370.51 424.28C370.3 424.56 369.78 423.49 369.92 423.4C371.37 422.15 372.5 421.72 371.87 420.8C371.24 419.88 369.52 418.61 367.72 417.26L365.23 415.37L357.73 420.44L358.32 423.62C358.82 426.25 359.22 427.94 359.85 428.86C360.48 429.78 361.26 429.05 362.85 428.19C363.08 428.04 363.73 429.01 363.39 429.1C361.976 429.856 360.607 430.694 359.29 431.61C357.977 432.435 356.733 433.364 355.57 434.39C355.32 434.63 354.83 433.61 354.98 433.51C357.16 431.76 357.52 429.7 356.65 424.62L352.97 402.62C352.91 402.32 353.34 401.96 353.62 402.18L371.62 414.48C375.22 416.9 377.02 418.18 380.55 416.2C380.69 416.1 381.44 417.02 381.09 417.11C379.457 418.011 377.872 418.996 376.34 420.06C374.319 421.365 372.366 422.774 370.49 424.28M357.33 418.68L363.76 414.33L355.63 408.49L357.33 418.68Z" fill="white"/>
       <path id="Vector_43" d="M402.54 397C402.38 397.23 401.67 396.37 401.79 396.25C403.79 393.67 403.68 392.68 399.99 389.02L395.94 385.02L385.39 395.64L389.39 399.64C392.88 403.11 394.03 403.64 396.59 401.44C396.71 401.32 397.59 402.07 397.3 402.23C395.871 403.431 394.502 404.702 393.2 406.04C391.444 407.738 389.775 409.523 388.2 411.39C388.04 411.7 387.33 410.75 387.45 410.64C390.09 407.27 389.97 406.64 386.2 402.85L377.2 393.95C373.43 390.21 372.68 390.01 369.37 392.71C369.25 392.83 368.37 392.08 368.66 391.93C370.533 390.372 372.309 388.703 373.98 386.93C375.298 385.606 376.546 384.214 377.72 382.76C377.88 382.45 378.63 383.36 378.51 383.47C376.34 386.05 376.86 387.19 380.39 390.7L384.16 394.44L394.71 383.82L391 380.09C387.27 376.38 386.24 376.23 383.72 378.29C383.6 378.41 382.72 377.66 382.93 377.5C384.651 376.153 386.272 374.682 387.78 373.1C389.08 371.79 391.28 369.41 392.07 368.39C392.22 368.07 393.07 368.89 392.86 369.09C390.03 372.42 390.62 373.33 394.19 376.87L403.19 385.78C406.76 389.32 407.59 389.83 410.94 387.02C411.14 386.82 411.94 387.65 411.65 387.81C410.65 388.6 408.3 390.86 407 392.17C405.426 393.684 403.94 395.286 402.55 396.97" fill="white"/>
       </g>
       <path id="Vector_44" d="M344.81 323.43H157.81C157.42 323.43 157.046 323.275 156.771 322.999C156.495 322.724 156.34 322.35 156.34 321.96C156.34 321.57 156.495 321.196 156.771 320.921C157.046 320.645 157.42 320.49 157.81 320.49H344.81C345.2 320.49 345.574 320.645 345.849 320.921C346.125 321.196 346.28 321.57 346.28 321.96C346.28 322.35 346.125 322.724 345.849 322.999C345.574 323.275 345.2 323.43 344.81 323.43Z" fill="#B79257"/>
       <path id="Vector_45" d="M344.81 191.05H157.81C157.42 191.05 157.046 190.895 156.771 190.619C156.495 190.344 156.34 189.97 156.34 189.58C156.34 189.19 156.495 188.816 156.771 188.541C157.046 188.265 157.42 188.11 157.81 188.11H344.81C345.2 188.11 345.574 188.265 345.849 188.541C346.125 188.816 346.28 189.19 346.28 189.58C346.28 189.97 346.125 190.344 345.849 190.619C345.574 190.895 345.2 191.05 344.81 191.05Z" fill="#B79257"/>
       <path id="Vector_46" d="M185.37 154.33H182.76C182.631 155.408 182.584 156.495 182.62 157.58V160.93H184.17C187.07 160.93 187.35 160.55 187.67 159.31C187.67 159.24 188.37 159.24 188.34 159.38C188.2 160.172 188.139 160.976 188.16 161.78C188.124 162.346 188.124 162.914 188.16 163.48C188.23 163.69 187.52 163.76 187.49 163.55C187.27 162.49 186.99 161.99 184.13 161.99H182.58V165.7C182.58 169.05 182.83 169.51 185.33 169.7C185.51 169.7 185.58 170.4 185.33 170.37C184.51 170.26 182.57 170.22 181.44 170.22C180.062 170.188 178.682 170.238 177.31 170.37C177.1 170.44 177.21 169.7 177.31 169.7C179.36 169.45 179.75 168.95 179.75 165.7V157.7C179.75 154.35 179.47 153.93 176.75 153.64C176.68 153.64 176.58 152.9 176.75 152.94C178.75 153.11 181.94 153.15 184.62 153.15C186.53 153.15 188.26 153.04 189.24 153.04C189.7 153.04 189.92 153.11 189.99 153.61C190.06 154.11 190.13 155.83 190.23 156.54C190.23 156.64 189.63 156.68 189.6 156.54C189.24 154.81 189.31 154.28 185.29 154.28" fill="#002957"/>
       <path id="Vector_47" d="M193.53 162C193.53 157.17 197.8 152.65 203.59 152.65C209.02 152.65 213.15 156.85 213.15 161.47C213.15 166.28 208.92 170.79 203.09 170.79C197.69 170.79 193.53 166.63 193.53 162ZM196.53 160.87C196.53 166.66 200.24 169.66 203.77 169.66C207.54 169.66 210.3 167.33 210.3 162.6C210.3 156.82 206.56 153.74 203.03 153.74C199.25 153.74 196.53 156.11 196.53 160.87Z" fill="#002957"/>
       <path id="Vector_48" d="M233.56 164.15C233.56 167.75 230.84 170.78 226.11 170.78C222.01 170.78 218.52 168.21 218.52 163.97V157.76C218.52 154.41 218.13 153.95 215.84 153.66C215.73 153.66 215.66 152.96 215.84 153.03C217.296 153.17 218.759 153.217 220.22 153.17C221.35 153.17 223.11 153.17 223.96 153.03C224.17 152.96 224.17 153.66 223.96 153.66C221.56 153.88 221.34 154.58 221.34 157.76V163.37C221.34 167.5 224.03 169.37 226.75 169.37C230.31 169.37 232.18 167.46 232.18 163.83V157.54C232.18 154.54 231.79 153.98 229.5 153.69C229.32 153.69 229.32 152.99 229.5 153.06C230.648 153.201 231.805 153.248 232.96 153.2C233.985 153.21 235.01 153.163 236.03 153.06C236.32 153.06 236.18 153.69 236.11 153.69C233.67 153.91 233.46 154.69 233.46 157.54L233.56 164.15Z" fill="#002957"/>
       <path id="Vector_49" d="M257.38 165.7C257.38 167.01 257.38 169.41 257.56 170.54C257.56 170.64 257.14 170.78 256.92 170.54L243.76 157.16V165.67C243.76 168.49 244.01 169.48 246.44 169.67C246.51 169.67 246.58 170.41 246.37 170.34C245.421 170.227 244.466 170.177 243.51 170.19C242.238 170.156 240.965 170.206 239.7 170.34C239.52 170.34 239.59 169.67 239.7 169.67C242.03 169.42 242.38 168.67 242.38 165.67V156.6C242.38 155.4 240.16 153.78 238.96 153.6C238.85 153.6 238.78 152.86 238.96 152.93C240.507 153.1 242.064 153.17 243.62 153.14L256 166V157.77C256 154.77 255.65 153.96 253.35 153.71C253.18 153.71 253.18 152.97 253.35 153.04C254.509 153.204 255.68 153.264 256.85 153.22C257.904 153.214 258.956 153.14 260 153C260.35 153 260.18 153.67 260.11 153.67C257.64 153.85 257.42 154.91 257.42 157.73L257.38 165.7Z" fill="#002957"/>
       <path id="Vector_50" d="M268.26 170.25C266.668 170.217 265.076 170.267 263.49 170.4C263.14 170.4 263.35 169.72 263.49 169.72C265.82 169.48 266.18 169.02 266.18 165.72V157.72C266.18 154.37 265.82 153.91 263.49 153.66C263.39 153.66 263.21 152.92 263.57 152.99C265.231 153.151 266.901 153.211 268.57 153.17C269.21 153.17 271.68 153.06 272.63 153.06C278.99 153.06 282.44 156.74 282.44 161.47C282.44 166.2 278.25 170.36 272.28 170.36C271.36 170.36 268.96 170.25 268.33 170.25M269.28 154.3C269.077 155.428 269.006 156.576 269.07 157.72V166.65C269.07 168.6 269.24 169.23 273.02 169.23C273.899 169.253 274.774 169.094 275.589 168.763C276.403 168.432 277.141 167.935 277.754 167.305C278.368 166.675 278.844 165.924 279.153 165.1C279.462 164.277 279.597 163.398 279.55 162.52C279.55 156.98 276.73 154.16 271.82 154.16C270.971 154.121 270.12 154.168 269.28 154.3Z" fill="#002957"/>
       <path id="Vector_51" d="M297.34 170.4C296.34 170.4 294.69 170.25 292.72 170.25C290.03 170.25 286.82 170.25 284.84 170.4C284.63 170.4 284.74 169.73 284.84 169.73C287.53 169.41 287.77 169.05 287.77 165.73V157.73C287.77 154.38 287.53 153.96 284.84 153.67C284.74 153.67 284.63 152.93 284.84 152.97C286.84 153.14 289.93 153.18 292.61 153.18C294.51 153.18 296.35 153.11 297.98 152.97C297.833 153.568 297.772 154.185 297.8 154.8C297.8 155.09 297.8 155.86 297.8 156.04C297.8 156.22 297.13 156.15 297.13 156.04C296.92 154.88 296.49 154.31 293.07 154.31H290.77C290.646 155.389 290.599 156.475 290.63 157.56V160.81H292.4C295.4 160.81 295.57 160.74 295.86 159.61C295.86 159.54 296.53 159.5 296.49 159.68C296.386 160.368 296.339 161.064 296.35 161.76V163.28C296.128 163.318 295.902 163.318 295.68 163.28C295.43 161.9 295.22 161.79 292.4 161.79H290.63V165.29C290.63 168.68 290.81 168.99 292.01 168.99H293.39C297.44 168.99 297.55 168.43 297.94 166.7C297.94 166.7 298.65 166.7 298.65 166.77C298.54 167.44 298.26 169.17 298.08 169.7C297.9 170.23 297.8 170.34 297.34 170.34" fill="#002957"/>
       <path id="Vector_52" d="M307.12 170.25C305.528 170.217 303.936 170.267 302.35 170.4C302 170.4 302.21 169.72 302.35 169.72C304.68 169.48 305.03 169.02 305.03 165.72V157.72C305.03 154.37 304.68 153.91 302.35 153.66C302.24 153.66 302.07 152.92 302.42 152.99C304.082 153.151 305.751 153.211 307.42 153.17C308.06 153.17 310.53 153.06 311.48 153.06C317.84 153.06 321.3 156.74 321.3 161.47C321.3 166.2 317.1 170.36 311.13 170.36C310.21 170.36 307.81 170.25 307.18 170.25M308.13 154.3C307.927 155.428 307.856 156.576 307.92 157.72V166.65C307.92 168.6 308.1 169.23 311.87 169.23C312.749 169.253 313.624 169.094 314.439 168.763C315.254 168.432 315.991 167.935 316.604 167.305C317.218 166.675 317.694 165.924 318.003 165.1C318.312 164.277 318.447 163.398 318.4 162.52C318.4 156.98 315.58 154.16 310.67 154.16C309.821 154.122 308.97 154.169 308.13 154.3Z" fill="#002957"/>
       <path id="Vector_53" d="M155.63 248.13V236C155.631 235.444 155.584 234.888 155.49 234.34C156.043 234.42 156.601 234.463 157.16 234.47H166.33C173.33 234.47 177.39 235.55 177.39 241.89C177.39 246.01 174.85 249.69 166.61 249.69H157.16C156.612 249.694 156.065 249.728 155.52 249.79C155.59 249.249 155.626 248.705 155.63 248.16M155.63 276.05V262C155.632 261.451 155.592 260.903 155.51 260.36C156.057 260.429 156.608 260.465 157.16 260.47H164.91C171.09 260.47 178.65 260.47 178.65 269.03C178.65 275.37 173.24 277.59 165.95 277.59H157.16C156.615 277.594 156.07 277.635 155.53 277.71C155.592 277.162 155.625 276.611 155.63 276.06M133.41 226.92V285.45C133.41 287.35 133.52 288.03 132.18 288.86C130.84 289.69 129.51 289.81 127.35 290.18C127.13 290.23 127.17 291.05 127.35 291.05H174.69C194.69 291.05 203.06 283.12 203.06 270.76C203.06 261.63 198.81 256.04 190.38 253.94C190.35 253.932 190.324 253.914 190.306 253.89C190.287 253.865 190.277 253.836 190.277 253.805C190.277 253.774 190.287 253.745 190.306 253.72C190.324 253.696 190.35 253.678 190.38 253.67C195.75 251.99 200.69 248.11 200.69 238.59C200.69 225.69 191.97 221.32 172.95 221.32H127.35C127.13 221.32 127.09 222.13 127.35 222.19C129.52 222.56 130.86 222.69 132.18 223.51C133.5 224.33 133.41 225.01 133.41 226.9" fill="#002957"/>
       <path id="Vector_54" d="M372 226.89C372 224.99 371.89 224.32 373.23 223.49C374.57 222.66 375.9 222.49 378.06 222.17C378.28 222.11 378.24 221.3 378.06 221.3H343.12C342.9 221.3 342.86 222.11 343.12 222.17C344.718 222.226 346.278 222.676 347.66 223.48C349.01 224.32 348.89 224.99 348.89 226.89V262.06C348.89 270.06 344.29 276.25 335.17 276.25C326.05 276.25 321.45 270.08 321.45 262.06V226.9C321.45 225 321.33 224.32 322.68 223.49C324.07 222.703 325.625 222.251 327.22 222.17C327.44 222.11 327.4 221.3 327.22 221.3H294.22C293.98 221.3 294.03 222.12 294.22 222.17C295.208 222.106 296.189 222.381 297 222.95C298.1 223.88 298.27 225 298.27 226.9V261.47C298.27 278.14 307.39 292.3 335.07 292.3C362.75 292.3 372 278.13 372 261.46V226.89Z" fill="#002957"/>
       <path id="Vector_55" d="M266.15 291C266.37 291 266.41 290.18 266.15 290.13C263.98 289.76 262.64 289.63 261.32 288.81C260 287.99 260.09 287.3 260.09 285.41V263.21L284.24 227.34C285.126 225.888 286.221 224.574 287.49 223.44C287.781 223.212 288.085 223.002 288.4 222.81C289.188 222.353 290.089 222.128 291 222.16C291.22 222.16 291.29 221.3 291 221.3H258.51C258.24 221.3 258.29 222.15 258.51 222.17C260.09 222.17 262.04 222.17 261.72 224.45C261.4 226.73 252.15 240.23 248.81 245.38C248.312 246.112 247.972 246.94 247.81 247.81C247.625 246.934 247.253 246.109 246.72 245.39C242.06 238.45 234.09 227.2 233.86 224.45C233.67 222.09 235.49 222.16 237.07 222.16C237.3 222.16 237.38 221.3 237.07 221.3H203C202.8 221.3 202.82 222.08 203 222.16C204.383 222.145 205.751 222.446 207 223.04C207.304 223.208 207.595 223.398 207.87 223.61C209.075 224.692 210.11 225.95 210.94 227.34L235.06 263.05V285.41C235.06 287.31 235.18 287.99 233.83 288.82C232.48 289.65 231.17 289.77 229 290.14C228.78 290.19 228.82 291.01 229 291.01L266.15 291Z" fill="#002957"/>
       </g>
       </g>
       </g>
       </g>
       <defs>
       <filter id="filter0_d_0_1" x="36.3277" y="40.8127" width="428.9" height="435.287" filterUnits="userSpaceOnUse" color-interpolation-filters="sRGB">
       <feFlood flood-opacity="0" result="BackgroundImageFix"/>
       <feColorMatrix in="SourceAlpha" type="matrix" values="0 0 0 0 0 0 0 0 0 0 0 0 0 0 0 0 0 0 127 0" result="hardAlpha"/>
       <feOffset dy="4"/>
       <feGaussianBlur stdDeviation="2"/>
       <feComposite in2="hardAlpha" operator="out"/>
       <feColorMatrix type="matrix" values="0 0 0 0 0 0 0 0 0 0 0 0 0 0 0 0 0 0 0.25 0"/>
       <feBlend mode="normal" in2="BackgroundImageFix" result="effect1_dropShadow_0_1"/>
       <feBlend mode="normal" in="SourceGraphic" in2="effect1_dropShadow_0_1" result="shape"/>
       </filter>
       </defs>
       </svg>
