<svg width="335" height="938" viewBox="0 0 335 938" fill="none" xmlns="http://www.w3.org/2000/svg">
<g id="cosmo 1" clip-path="url(#clip0_0_1)">
<path id="Vector" d="M336 900C336 902.042 336 904.083 335.737 906.879C334.67 909.112 333.866 910.592 333.045 912.038C333.029 912.005 333.103 911.998 332.653 911.925C332.155 912.594 332.108 913.334 332.031 914.041C332.001 914.006 332.078 914.055 331.798 913.768C324.421 921.294 314.909 923.541 305.043 924.541C293.538 925.707 282.188 925.389 271.496 919.863C268.087 918.101 264.243 916.799 260.455 916.222C247.793 914.294 235.897 910.646 225.572 902.748C224.909 902.241 223.825 902.284 222.968 902.036C222.999 902 222.934 902.068 223.281 901.807C222.39 900.378 221.152 899.211 219.953 898.022C219.992 898.001 219.934 898.068 220.271 897.84C220.096 897.091 219.585 896.57 218.997 895.677C217.605 891.515 216.288 887.725 215.023 883.525C215.154 879.972 215.184 876.828 215.327 873.688C215.439 871.223 216.82 867.825 215.688 866.463C210.73 860.5 211.729 853.77 211.961 846.6C213.154 839.403 214.279 832.628 215.553 825.881C217.434 815.926 219.754 805.997 216.144 795.568C215.81 792.877 215.363 790.577 214.8 787.685C213.413 789.205 212.527 790.175 210.931 791.922C210.931 788.618 210.931 786.356 210.957 783.62C211.306 767.456 211.648 751.766 211.936 736.075C212.006 732.242 212.862 728.077 211.684 724.638C208.979 716.745 209.318 708.708 208.843 700.656C208.515 695.094 207.891 689.522 206.948 684.032C205.84 677.572 204.328 671.175 202.832 664.789C201.734 660.105 200.38 655.482 199.431 651.924C197.272 660.802 195.322 670.309 192.588 679.584C190.433 686.893 189.043 694.056 188.87 701.788C188.649 711.694 187.923 721.798 182.695 730.884C181.135 733.597 180.801 737.015 179.54 740.275C179.113 750.684 179.03 760.928 179.032 771.171C179.033 771.838 179.685 772.505 180.019 773.597C179.358 780.916 179.19 787.906 177.851 794.664C177.235 797.772 177.767 802.365 173.038 803.667C172.876 803.712 172.947 804.605 172.52 805.286C172.089 809.947 171.917 814.428 172.044 818.9C172.157 822.896 172.602 826.882 172.93 831.284C172.984 833.069 173.01 834.443 172.664 836.006C172.186 836.842 171.906 837.514 171.995 838.134C173.846 851.053 176.727 863.913 174.032 877.039C174.001 877.005 174.078 877.054 173.787 876.783C172.515 877.814 170.766 879.067 170.683 880.423C170.237 887.662 170.208 894.927 170.036 902.553C168.997 905.309 167.956 907.694 166.53 910.164C166.119 910.854 166.093 911.46 166.037 912.033C166.007 912 166.085 912.045 165.754 911.783C164.638 913.037 163.852 914.553 163.035 916.034C163.004 915.999 163.077 916.058 162.735 915.71C161.948 916.267 161.503 917.172 161.028 918.04C160.998 918.002 161.063 918.071 160.828 917.718C153.787 921.217 151.684 923.801 151.043 929.034C151.016 929 151.096 929.032 150.68 928.812C150.185 929.094 150.106 929.594 150.016 930.057C150.003 930.02 150.072 930.06 149.807 929.746C146.645 931.294 143.912 933.516 140.809 934.927C137.035 936.642 132.95 937.673 129 939C120.646 939 112.292 939 103.355 938.64C94.5616 936.311 86.5369 933.993 81.0155 926.871C80.9088 926.733 80.2986 926.986 79.9617 927.031C80 927.006 79.9382 927.074 80.2995 926.778C80.0731 925.987 79.4853 925.493 78.9349 925.002C78.9722 925.004 78.9363 925.069 79.2876 924.825C79.0728 923.706 78.5068 922.832 77.9919 921.965C78.0432 921.972 78.0455 922.075 77.9149 921.845C77.8384 921.447 77.8925 921.279 77.8387 920.768C77.4715 916.265 77.2123 912.105 76.9797 907.533C76.3088 900.443 75.6113 893.766 75.2193 886.869C77.2953 881.236 78.7724 875.706 80.9009 870.438C84.6522 861.155 86.6016 851.494 88.0494 841.658C88.772 836.748 89.9679 831.91 90.8632 827.024C91.639 822.79 92.2038 818.516 93.021 814.29C94.2664 807.85 95.6491 801.437 97.0836 794.654C101.742 785.324 99.4358 775.441 100.954 765.629C103.712 753.786 106.493 742.388 109.179 730.966C109.494 729.626 109.675 728.031 109.255 726.775C105.454 715.414 105.892 703.85 107.434 692.235C107.67 690.461 108.45 688.759 109.099 686.677C110.885 682.363 112.226 678.479 111.189 673.929C110.674 671.667 111.967 669.053 111.947 666.602C111.926 664.015 111.314 661.433 110.913 658.516C108.89 649.752 106.916 641.32 104.916 632.503C104.604 630.731 104.317 629.345 104.03 627.96C103.673 627.919 103.317 627.877 102.961 627.836C102.664 628.913 102.367 629.989 102.042 631.032C102.013 630.998 102.092 631.036 101.678 630.818C101.188 631.098 101.112 631.595 101.021 632.053C101.006 632.014 101.075 632.062 100.735 631.709C99.9496 632.263 99.5036 633.17 99.0369 634.042C99.0163 634.008 99.0925 634.033 98.6776 633.816C98.1861 634.096 98.1095 634.594 98.026 635.056C98.0191 635.019 98.0925 635.033 97.6777 634.815C97.1861 635.096 97.1093 635.594 97.0258 636.056C97.0191 636.019 97.0924 636.033 96.6776 635.816C96.186 636.097 96.1093 636.595 96.0258 637.056C96.0191 637.019 96.0924 637.033 95.6776 636.816C95.186 637.097 95.1093 637.595 95.0161 638.054C94.9997 638.015 95.0669 638.066 94.8277 637.763C93.7379 638.296 92.8872 639.132 91.899 640.277C85.922 647.046 80.0827 653.506 73.8585 659.899C72.6679 661.245 71.8621 662.659 71.0328 664.038C71.0091 664.003 71.0826 664.045 70.7555 663.774C69.6406 665.025 68.8527 666.548 68.0319 668.037C67.999 668.004 68.0747 668.059 67.8026 667.762C65.0407 671.334 62.551 675.203 60.034 679.038C60.0068 679.005 60.0834 679.044 59.781 678.799C58.659 680.046 57.8394 681.537 56.877 683.348C52.7548 693.287 48.0219 702.677 44.9989 712.588C41.6908 723.434 42.1495 734.746 44.725 745.967C45.209 750.742 48.2016 753.192 52.5515 754.279C54.8074 754.843 57.0658 755.398 59.3301 755.927C70.7073 758.585 78.4389 769.435 76.7128 780.336C75.0597 790.776 65.9141 797.012 53.7571 796.294C40.9452 795.537 30.61 789.751 21.5146 781.154C20.5362 780.229 19.1357 779.751 17.9655 779.033C17.9999 779 17.9336 779.068 18.2787 778.803C17.3882 777.374 16.1524 776.209 14.9534 775.024C14.9902 775.003 14.9433 775.073 15.2658 774.789C14.3647 773.353 13.1412 772.201 11.9565 771.027C11.9953 771.005 11.937 771.073 12.308 770.78C12.0854 769.992 11.4917 769.496 10.9353 769.002C10.9726 769.004 10.9376 769.07 11.255 768.838C11.0744 768.092 10.5763 767.578 9.92346 766.732C7.52544 760.528 5.29518 754.651 3.03049 748.787C2.40638 747.171 1.67965 745.595 1 744C1 732.646 1.00001 721.292 1.39305 709.433C3.54402 702.341 4.8147 695.572 7.17924 689.21C10.368 680.63 14.3987 672.363 18.4579 663.878C18.8764 663.174 18.905 662.554 18.9639 661.967C18.9942 661.999 18.9171 661.955 19.224 662.201C21.3307 658.943 23.1305 655.439 24.965 651.967C24.9998 651.999 24.9232 651.943 25.2071 652.225C28.002 648.605 30.5131 644.703 33.1037 640.48C35.8167 637.083 38.4502 634.007 41.4516 630.917C42.5231 629.581 43.2268 628.258 43.9624 626.97C43.9944 627.003 43.921 626.945 44.2578 627.287C45.0473 626.725 45.5001 625.821 45.9744 624.954C45.996 624.991 45.9248 624.944 46.1928 625.247C48.6158 622.68 50.7708 619.81 52.9626 616.97C52.9994 617 52.9248 616.939 53.2643 617.323C54.0489 616.78 54.4939 615.852 54.9684 614.961C54.9979 614.998 54.9248 614.939 55.2643 615.323C56.0489 614.78 56.494 613.852 56.9696 612.962C57.0002 613 56.9388 612.927 57.1581 613.292C61.0266 610.241 64.6889 606.839 68.2851 603.367C68.4612 603.197 68.0594 602.429 67.9623 601.968C67.998 601.998 67.935 601.93 68.1827 602.301C69.5996 601.091 70.7689 599.509 71.9687 597.963C71.9992 597.998 71.9283 597.937 72.1957 598.273C73.6244 597.047 74.7856 595.485 75.9728 593.958C75.9989 593.995 75.928 593.941 76.1751 594.24C76.9482 594.026 77.4741 593.513 78.3019 592.844C80.0455 590.437 81.4874 588.187 82.963 585.97C82.9968 586.002 82.9227 585.943 83.2603 586.281C84.0483 585.719 84.4988 584.819 84.972 583.956C84.9946 583.993 84.9227 583.946 85.2084 584.233C86.9747 582.324 88.4554 580.128 89.9663 577.967C89.9966 578.001 89.9251 577.943 90.1955 578.237C94.4513 573.48 98.6316 568.568 102.349 563.328C104.585 560.176 106.1 556.513 108.254 552.841C108.03 541.427 107.205 530.254 107.069 519.073C106.998 513.196 107.7 507.22 108.816 501.437C110.775 491.292 115.437 481.623 113.968 470.521C114.482 467.747 115.634 465.242 115.274 462.977C114.837 460.22 113.127 457.664 111.952 454.558C111.11 443.733 112.686 433.529 115.115 423.592C116.929 416.173 115.792 410.078 111.211 404.028C108.947 399.46 106.508 395.261 103.921 390.736C96.0377 373.936 91.7349 356.34 86.9884 338.526C86.3981 336.607 86.0746 334.768 85.0146 333.596C81.1348 329.304 77.0287 325.215 72.9532 321.103C72.4423 320.588 71.6059 320.395 70.9593 320.026C70.9983 320 70.929 320.064 71.2842 319.854C70.784 318.445 69.9286 317.247 68.9989 315.685C67.1867 310.049 65.3448 304.808 63.7535 299.493C62.9181 296.702 62.5218 293.78 61.9731 290.505C59.033 282.403 56.047 274.713 52.9847 266.617C51.601 256.667 49.3596 247.14 49.1984 237.578C48.9364 222.045 47.4647 206.38 50.9965 190.561C51.0331 188.897 51.0331 187.631 51.0331 185.183C49.0479 188.109 47.7898 189.964 45.9614 192.659C45.9614 188.228 45.9614 185.135 45.9756 181.619C46.9744 173.031 47.6831 164.82 49.0256 156.714C50.2279 149.455 52.4033 142.357 53.6118 135.099C54.2743 131.12 57.4054 127.226 53.435 122.776C49.7806 118.681 46.9613 113.736 44.3254 108.868C42.1956 104.934 39.9808 100.674 39.4167 96.3478C38.4723 89.1059 38.591 81.6663 42.4818 74.8482C46.6908 70.264 49.4689 65.2617 48.8969 58.6277C51.6888 52.1714 56.6013 49.3167 63.0438 49.0703C65.9941 48.9574 67.3765 47.9467 66.9684 44.9634C66.9996 44.9989 66.9289 44.9362 67.1977 45.2754C72.1614 42.2156 77.0211 39.9658 82.9866 44.3841C82.9866 41.6456 82.9866 39.8514 83.2119 37.8474C84.7729 28.1352 85.9314 18.6024 87.5524 9.14881C88.0377 6.3187 89.8148 3.71009 91 1C94.3613 1 97.7226 1 101.766 1.26064C106.69 3.72005 107.859 7.65135 108.056 11.9504C108.398 19.4262 108.459 26.9149 108.807 34.3904C108.971 37.9 109.527 41.3914 109.933 45.3284C110.638 52.4633 111.314 59.1608 111.932 66.3059C112.991 70.8004 114.29 74.8081 115.172 78.9056C116.009 82.7953 116.372 86.7852 117.031 90.7163C117.175 91.5713 117.69 92.3638 118.035 93.5733C115.286 100.874 113.128 108.104 109.626 114.611C105.952 121.437 103.981 128.531 102.558 136.161C102.419 144.805 102.652 153.33 102.969 162.262C104.007 167.468 104.961 172.267 105.578 177.195C107.051 183.391 108.861 189.457 110.812 195.918C110.98 197.149 111.007 197.985 110.673 199.002C110.482 203.381 109.171 207.698 112.573 211.481C119.292 218.954 125.931 226.518 132.174 234.385C134.16 236.887 135.969 238.314 139.022 238.025C138.968 238.032 138.94 237.927 139.121 238.255C141.847 239.401 144.392 240.218 147.539 241.229C145.986 237.568 144.753 234.659 143.43 231.54C142.544 232.563 141.826 233.392 140.965 233.864C139.222 228.324 137.623 223.141 136.111 217.51C136.398 208.168 136.598 199.274 136.848 189.997C136.76 188.357 136.145 186.906 136.563 185.874C138.779 180.402 141.402 175.094 143.554 169.599C144.214 167.915 143.831 165.822 143.928 163.574C143.59 163.165 143.249 163.099 142.947 163.017C142.986 163.002 142.935 163.069 143.279 162.819C142.384 161.055 141.146 159.541 139.945 158.018C139.983 158.008 139.943 158.076 140.284 157.767C140.05 156.974 139.475 156.489 138.937 156.005C138.974 156.006 138.938 156.072 139.288 155.801C138.743 152.708 137.848 149.886 136.972 146.615C136.983 143.773 136.975 141.379 137.059 138.632C138.077 135.833 139.001 133.386 139.96 130.967C139.994 130.994 139.939 130.926 140.168 131.299C147.402 126.228 155.363 124.787 163.877 126.477C168.736 127.442 173.591 128.668 178.243 130.346C181.893 131.662 185.069 131.86 188.746 130.342C205.929 123.247 223.544 122.887 240.755 129.491C250.878 133.375 260.673 134.934 271.348 133.203C278.876 131.983 285.059 135.742 286.993 143.188C288.3 148.221 287.398 153.834 287.423 159.188C287.429 160.481 287.192 161.776 287.038 163.037C287.009 163.004 287.089 163.04 286.732 162.792C285.93 163.725 285.487 164.905 285.033 166.05C285.023 166.014 285.097 166.02 284.72 165.847C284.103 166.161 283.863 166.648 283.534 167.445C278.097 174.525 274.364 181.883 274.689 191.078C274.548 201.186 274.762 211.062 274.958 220.939C275.012 223.686 275.01 226.433 275.02 229.598C273.71 235.322 273.368 241.148 270.846 245.789C268.421 250.253 266.773 254.482 266.448 259.604C265.52 261.515 264.852 263.265 264.153 265.092C270.927 267.745 277.276 270.059 283.484 272.702C294.92 277.569 306.454 282.358 313.976 293.116C314.069 293.25 314.698 293.01 315.038 292.97C315 292.997 315.067 292.931 314.712 293.178C316.27 296.621 318.184 299.818 320.052 303.007C320.007 303 320.023 302.91 319.846 303.292C322.92 312.841 323.913 322.279 323.178 332.302C324.153 340.163 320.748 346.538 317.567 353.135C316.499 355.157 315.786 357.109 315.037 359.031C315.001 359 315.079 359.053 314.771 358.785C313.332 360.699 312.202 362.881 311.037 365.032C311.002 365.002 311.064 365.07 310.836 364.766C309.8 365.326 308.992 366.191 307.939 367.316C308.141 375.109 308.587 382.642 308.99 390.567C308.619 396.239 308.068 401.517 308.04 406.798C308.018 410.883 309.07 414.987 308.913 419.055C308.448 431.051 307.62 443.033 306.585 455.131C307.172 458.362 307.868 461.581 309.089 464.588C314.237 477.266 315.925 490.249 313.109 503.733C313.025 504.137 313.709 504.701 314.022 505.557C313.255 509.4 312.502 512.875 311.659 516.523C311.434 516.972 311.215 517.082 310.937 516.981C310.962 516.935 311.061 516.965 310.697 517.05C309.576 519.78 308.82 522.424 308.045 525.037C308.025 525.005 308.1 525.003 307.649 524.921C307.153 525.583 307.108 526.328 307.033 527.038C307.004 527.005 307.081 527.05 306.784 526.792C304.681 529.378 302.875 532.221 301.035 535.033C301 535 301.066 535.07 300.816 534.73C293.473 539.557 286.178 543.899 276.257 540.274C277.14 543.306 278.432 545.89 279.98 548.312C281.431 550.583 283.153 552.682 285.117 555.003C285.614 556.15 285.749 557.151 285.55 558.331C285.893 564.343 286.571 570.177 287.188 576.432C287.548 591.391 287.953 605.93 288.4 620.467C288.487 623.285 288.738 626.099 288.942 629.355C288.446 634.341 288.404 639.007 287.304 643.409C284.566 654.362 284.987 665.231 286.093 676.363C287.049 685.978 286.377 695.761 286.316 705.469C286.28 711.101 283.719 716.256 285.507 722.437C288.844 733.976 291.169 745.896 292.824 757.808C294.34 768.71 294.151 779.838 295.207 790.819C296.111 800.229 297.715 809.571 298.901 819.392C299.835 826.538 300.878 833.235 301.945 840.247C301.99 840.983 302.012 841.404 301.695 841.998C301.888 845.409 302.219 848.697 302.994 851.876C304.655 858.688 309.175 864.267 315.131 866.528C323.745 869.799 330.091 874.535 334.061 883.094C334.83 883.58 335.415 883.79 336 884C336 886.7 336 889.4 335.692 892.779C335.589 895.639 335.795 897.819 336 900ZM148.203 135.787C147.818 136.349 147.433 136.911 146.886 137.823C146.876 138.247 146.866 138.67 146.679 139.802C146.467 141.48 146.255 143.158 145.413 145.124C147.298 149.041 149.348 152.89 151.009 156.9C152.103 159.542 152.637 162.417 153.153 165.918C152.632 167.645 152.13 169.378 151.588 171.098C148.674 180.338 145.749 189.574 142.829 198.811C143.304 198.994 143.779 199.176 144.254 199.358C145.353 198.369 146.452 197.38 147.274 196.64C146.878 205.716 146.482 214.774 146.086 223.832C146.602 223.864 147.117 223.895 147.633 223.927C148.833 220.64 150.033 217.353 151.233 214.066C151.595 224.615 154.028 234.125 160.277 243.074C162.755 235.224 166.073 229.025 173.93 227.682C163.491 235.918 164.999 251.702 172.951 261.093C173.779 260.482 174.623 259.858 175.061 259.535C176.546 263.57 177.98 267.466 179.414 271.363C179.757 271.245 180.1 271.127 180.443 271.009C180.884 269.037 181.325 267.064 181.794 264.967C185.654 269.756 189.223 274.185 193.221 279.147C193.9 276.959 194.209 275.96 194.55 274.86C206.489 282.924 207.164 283.053 222.215 281.247C224.182 281.011 226.269 280.798 228.171 281.195C233.176 282.238 237.908 282.444 242.722 280.059C246.685 278.096 247.899 272.692 252.945 272.313C261.014 258.639 266.969 244.618 260.939 228.753C261.766 229.091 262.593 229.428 264.028 230.013C264.338 224.859 264.61 220.321 264.888 215.693C265.68 216.77 266.57 217.981 267.859 219.734C267.859 212.239 268.714 205.347 267.652 198.766C266.187 189.691 266.446 180.999 269.588 171.746C272.141 167.574 274.683 163.397 277.249 159.234C279.967 154.826 282.694 150.431 279.088 144.436C276.272 139.619 272.059 138.118 266.904 139.792C263.505 140.896 260.292 142.573 257.004 144.005C257.004 144.005 257.018 144.022 256.729 143.274C255.962 142.29 255.392 140.887 254.385 140.414C252.615 139.584 250.453 139.594 248.67 138.781C227.567 129.149 206.441 129.986 185.078 138.749C185.209 139.868 185.371 141.267 185.609 143.31C183.883 142.156 182.77 141.141 181.462 140.583C174.803 137.745 168.251 134.488 161.343 132.463C157.089 131.216 152.127 131.421 148.875 135.843C148.875 135.843 148.915 135.858 148.203 135.787ZM235.225 316.192C235.413 315.973 235.62 315.766 235.773 315.524C235.803 315.477 235.637 315.206 235.537 315.19C232.228 314.663 228.916 314.155 225.968 313.7C227.232 317.15 228.348 320.196 229.464 323.242C230.16 323.275 230.856 323.307 231.552 323.339C232.096 321.229 232.639 319.118 233.972 316.762C234.204 316.614 234.437 316.465 235.225 316.192ZM215.368 319.308C211.84 326.438 216.566 332.773 224.669 332.756C224.887 330.228 226.075 327.248 225.074 325.584C223.486 322.944 220.435 321.183 217.802 318.55C217.355 318.262 216.908 317.974 216.461 317.687C216.304 318.078 216.147 318.468 215.368 319.308ZM30.0412 753.801C32.4831 754.918 34.925 756.035 38.3672 757.609C28.2055 741.458 27.7617 724.609 31.5341 708.319C37.3846 683.057 51.3546 662.441 69.1234 644.117C79.2028 633.722 89.3986 623.441 99.4745 613.043C100.575 611.907 101.902 610.376 101.983 608.963C102.578 598.48 102.885 587.981 103.296 577.122C102.519 577.96 101.869 578.65 101.232 579.351C88.9224 592.879 77.1538 606.953 64.1825 619.813C43.6294 640.19 25.5292 662.064 15.7296 689.737C8.03914 711.453 5.46617 733.494 14.1128 755.56C20.2747 771.284 30.9701 782.53 48.0231 786.54C54.8276 788.14 60.8321 784.305 61.8008 777.873C62.6817 772.024 58.3937 767.376 50.9874 766.029C42.3368 764.456 34.1484 761.976 29.0981 753.9C29.0981 753.9 29.3409 753.662 30.0412 753.801ZM145.864 820.837C145.864 820.837 145.572 820.507 145.843 819.894C164.105 797.126 171.63 771.028 170.722 741.584C158.791 744.346 147.829 742.582 136.841 740.5C135.422 740.231 133.256 741.122 132.211 742.216C129.756 744.786 127.77 747.803 125.594 750.639C125.332 750.553 125.069 750.466 124.807 750.38C125.443 746.399 126.079 742.419 126.769 738.104C124.001 737.024 121.31 735.975 118.338 734.815C113.454 747.614 110.159 760.087 110.941 774.846C113.227 771.192 114.759 768.744 116.291 766.295C116.682 766.482 117.072 766.669 117.463 766.856C116.16 771.801 115.564 777.078 113.424 781.629C106.228 796.932 103.462 813.253 100.941 829.737C98.1547 847.955 96.1254 866.383 87.585 883.217C85.089 888.137 85.1453 893.437 86.9414 898.779C87.5217 900.505 87.3073 902.651 86.9598 904.511C84.4097 918.166 87.5183 923.269 100.99 926.504C111.117 928.936 121.41 929.802 131.551 926.845C137.947 924.981 143.724 921.993 144.239 913.949C144.299 913.017 145.633 911.787 146.656 911.353C158.254 906.428 160.475 896.166 159.837 885.822C159.675 883.2 158.837 881.758 155.676 881.519C152.627 881.288 149.446 880.226 146.722 878.777C139.231 874.794 131.758 871.02 122.708 870.991C125.277 869.497 128.079 867.805 130.653 868.101C137.005 868.83 143.441 869.898 149.497 871.883C158.205 874.737 162.09 872.968 163.504 863.864C163.93 861.121 163.685 858.232 163.443 855.436C162.397 843.367 161.156 831.315 160.185 819.241C159.973 816.611 160.581 813.914 160.926 809.913C157.845 812.856 155.999 814.991 153.786 816.633C151.42 818.389 148.709 819.68 145.864 820.837ZM240.996 802.208C238.663 800.63 236.362 799.001 233.985 797.493C232.531 796.571 230.958 795.835 229.439 795.015C228.914 796.814 227.856 798.64 227.949 800.406C228.691 814.494 227.412 828.317 223.483 841.904C222.613 844.91 222.113 848.101 221.983 851.23C221.634 859.655 225.148 862.288 233.444 860.534C239.614 859.23 245.828 857.834 252.089 857.35C258.589 856.848 264.967 858.052 269.577 861.649C262.635 862.094 255.134 861.943 247.884 863.217C240.765 864.468 233.876 867.087 226.959 869.332C226.122 869.604 225.229 871.285 225.23 872.312C225.237 883.226 228.579 895.72 242.861 900.69C247.384 902.263 252.156 903.257 256.892 904.051C262.672 905.021 268.731 904.703 273.235 909.631C274.372 910.876 276.406 911.478 278.143 911.968C291.533 915.746 304.851 915.226 317.805 910.294C320.252 909.362 323.016 906.622 323.714 904.17C327.794 889.833 323.917 881.171 309.319 876.485C300.433 873.633 294.264 867.108 292.403 857.955C290.288 847.55 289.201 836.917 288.026 826.343C286.093 808.962 284.088 791.677 277.132 775.316C275.031 770.374 274.666 764.693 273.506 759.351C273.879 759.216 274.251 759.081 274.624 758.946C276.416 762.492 278.208 766.039 280 769.585C281.51 756.488 279.592 744.123 275.856 733.129C267.03 735.132 258.921 737.918 250.641 738.589C242.161 739.276 233.512 737.892 224.497 737.39C221.623 749.176 222.96 761.215 226.383 773.192C229.46 783.96 235.597 793.031 241.889 802.11C241.889 802.11 241.691 802.3 240.996 802.208ZM206.678 585.681C206.678 585.681 206.648 585.63 207.146 586.441C207.017 587.932 206.98 589.438 206.744 590.912C204.847 602.738 205.295 614.274 208.939 625.885C213.612 640.778 217.452 655.936 221.439 671.035C222.172 673.813 222.297 676.894 222.022 679.77C220.799 692.6 220.845 705.313 223.812 717.959C225.278 724.211 228.926 727.726 235.13 728.942C244.304 730.741 253.335 730.229 262.285 727.613C270.835 725.114 276.325 719.54 276.872 710.659C277.585 699.09 277.419 687.46 277.402 675.857C277.396 672.354 276.63 668.852 276.321 666.262C269.693 667.524 263.725 668.661 257.757 669.797C257.678 669.373 257.599 668.948 257.52 668.523C259.411 667.33 261.445 666.313 263.169 664.914C271.717 657.982 275.096 648.23 276.907 637.958C281.414 612.391 278.975 586.844 275.7 561.38C275.39 558.969 273.188 556.15 271.056 554.768C267.246 552.3 265.577 549.432 265.752 544.92C265.95 539.802 266.974 534.399 261.919 530.426C260.734 529.495 260.741 527.083 260.126 525.379C259.816 524.521 259.557 523.289 258.906 522.964C253.125 520.081 251.589 514.806 251.106 509.018C246.114 510.984 241.418 512.834 236.565 514.746C236.103 512.493 235.814 511.08 235.531 509.7C224.89 510.548 224.537 510.509 221.036 507.613C223.207 507.308 224.778 507.31 226.196 506.845C230.266 505.511 236.72 507.224 236.021 499.421C235.985 499.025 237.618 497.965 238.156 498.148C239.004 498.437 240.029 499.434 240.191 500.281C240.676 502.824 240.779 505.44 241.037 508.083C255.959 504.321 265.735 487.316 259.423 477.781C252.603 481.259 246.117 485.424 239.052 488.005C220.066 494.942 200.576 494.26 180.938 490.761C170.489 488.899 159.885 487.906 149.349 486.534C143.913 485.826 142.964 489.569 141.905 493.616C148.106 494.236 153.859 494.81 159.828 495.407C159.828 501.795 159.828 507.837 159.828 514.068C152.114 513.01 144.763 512.003 137.569 511.017C137.569 520.99 137.343 530.603 137.65 540.199C137.85 546.448 140.699 553.19 139.145 558.823C130.068 591.721 131.309 624.471 140.026 656.921C142.48 666.055 140.843 674.379 138.271 681.887C132.972 697.357 133.862 712.283 137.486 727.515C137.886 729.197 139.899 731.502 141.435 731.736C148.458 732.804 155.573 733.675 162.664 733.74C167.244 733.783 171.279 731.688 173.19 726.745C178.169 713.87 178.135 700.51 177.944 687.967C171.597 686.35 166.013 684.927 160.43 683.505C175.175 682.309 182.707 676.616 185.959 662.334C187.799 654.251 189.024 645.989 189.932 637.743C191.972 619.206 195.6 601.257 206.678 585.681ZM95.2592 174.104C92.5231 156.838 91.7407 139.572 95.9985 122.173C86.1202 123.97 80.9942 123.391 76.6362 120.197C76.9315 120.06 77.2143 119.87 77.5246 119.797C78.656 119.529 79.8049 119.334 80.9324 119.053C94.1191 115.758 102.629 107.485 107.136 94.7563C109.118 89.1581 107.486 84.858 102.874 81.711C97.9332 78.3401 92.9569 74.8414 87.5394 72.4212C84.5025 71.0645 79.7877 70.4032 77.1509 71.8455C71.5716 74.8973 66.662 79.3206 61.9392 83.6811C60.8387 84.6972 60.727 88.4268 61.7146 89.6055C62.7267 90.8134 66.0696 91.3156 67.6486 90.564C72.1099 88.4404 76.1901 85.516 80.1455 83.0768C86.1307 87.338 92.0381 91.5437 97.9912 95.782C91.1687 99.53 84.9086 96.982 79.9492 93.7711C74.8126 95.8623 70.6991 98.2582 66.2791 99.1723C59.1356 100.65 51.8994 93.6745 52.4608 87.1184C52.7636 83.5822 51.9555 79.9508 51.6486 76.3624C46.5215 83.4559 45.7252 90.5636 49.5374 97.8506C51.5416 101.682 52.9337 106.1 55.7694 109.178C63.6337 117.714 63.9407 126.655 60.5773 137.315C57.7341 146.327 57.1022 156.036 55.2432 166.887C57.8944 164.648 59.2649 163.491 60.9377 162.078C59.9792 178.308 58.4053 193.9 58.3208 209.5C58.2365 225.092 59.6422 240.693 60.3947 256.29C60.9629 256.311 61.5311 256.331 62.0993 256.352C62.8415 254.471 63.5837 252.589 64.4743 250.331C66.4136 255.617 67.6806 260.72 70.0731 265.226C74.2493 273.091 77.9187 281.74 83.9364 288.01C98.2392 302.912 119.074 296.965 123.92 276.939C128.782 256.844 123.617 238.78 110.487 222.95C109.19 221.386 107.505 220.145 106.117 218.862C103.935 222.363 102.106 225.298 100.277 228.232C99.7845 222.518 101.199 217.343 100.691 212.363C99.4144 199.841 97.27 187.408 95.2592 174.104ZM172.136 352.443C170.6 379.673 169.061 406.904 167.529 434.135C167.35 437.321 176.975 451.561 179.954 452.345C181.049 452.633 182.27 452.467 183.433 452.468C189.927 452.476 196.422 452.472 202.916 452.472C209.729 452.472 214.094 449.609 216.166 443.195C217.179 440.061 217.785 436.705 217.988 433.413C219.601 407.358 221.076 381.295 222.566 355.233C222.611 354.448 222.594 353.508 222.214 352.874C217.987 345.825 214.297 339.935 203.737 339.474C190.712 338.906 180.493 341.256 172.136 352.443ZM298.453 437.861C299.718 423.67 299.072 409.71 293.291 396.969C294.716 396.323 296.53 396.046 296.728 395.326C298.837 387.647 300.414 379.897 297.108 372.113C287.426 373.917 287.929 374.139 287.137 383.236C286.295 392.918 284.156 402.495 282.413 412.087C280.343 423.484 278.04 434.838 275.943 446.23C274.924 451.761 274.592 457.459 273.117 462.855C271.865 467.436 270.475 471.675 270.976 476.666C271.853 485.414 267.623 493.089 264.505 500.974C263.393 503.786 262.974 507.031 263.013 510.068C263.03 511.424 264.729 513.392 266.097 513.887C267.102 514.251 269.309 513.029 270.119 511.897C273.592 507.041 276.907 502.054 279.955 496.922C281.796 493.822 283.041 490.369 284.554 487.075C284.862 498.178 280.939 507.67 274.023 515.958C271.773 518.655 270.059 521.337 273.372 524.052C276.695 526.776 280.015 525.171 281.907 522.153C286.46 514.891 290.567 507.347 294.771 499.871C295.45 498.663 295.704 497.217 296.155 495.881C296.861 506.673 294.437 516.388 287.285 524.646C286.368 525.705 286.475 527.65 286.107 529.184C287.765 529.021 289.654 529.301 291.022 528.585C292.723 527.694 294.243 526.167 295.409 524.594C303.985 513.023 307.472 499.979 306.351 485.661C305.476 474.491 301.02 464.484 296.385 454.505C294.471 450.383 292.995 446.056 291.32 441.822C291.677 441.644 292.034 441.466 292.391 441.289C293.948 442.525 295.506 443.761 297.154 445.07C297.542 444.27 297.77 443.995 297.803 443.698C297.984 442.045 298.118 440.386 298.453 437.861ZM268.026 412.576C272.949 396.553 273.497 380.287 271.623 363.69C270.18 350.906 266.862 346.645 254.484 344.85C253.168 344.659 251.812 344.547 250.564 344.131C246.132 342.652 243.634 344.718 240.544 347.892C235.351 353.225 234.701 358.916 235.074 365.935C235.53 374.493 235.621 383.505 233.442 391.673C229.752 405.497 228.942 419.383 230.528 433.231C231.232 439.378 235.213 445.548 239.046 450.713C240.31 452.418 245.776 451.034 249.321 451.005C250.984 450.991 252.653 450.902 254.308 450.737C259.936 450.176 264.794 444.411 265.233 438.71C265.885 430.263 267.008 421.852 268.026 412.576ZM124.095 719.203C125.176 723.063 125.052 727.748 129.911 728.538C129.236 720.087 127.532 711.462 128.13 703C128.873 692.491 130.957 681.969 133.638 671.761C134.624 668.009 135.599 665.121 134.38 661.166C124.375 628.708 122.582 595.92 130.882 562.745C131.802 559.069 131.874 554.916 131.25 551.166C128.852 536.763 128.139 522.374 130.753 507.973C132.103 500.533 134.025 493.197 135.688 485.813C132.227 483.929 131.411 486.376 130.502 488.875C123.648 507.71 123.77 527.016 126.474 546.522C127.083 550.919 128.792 555.785 127.603 559.71C118.013 591.355 119.118 622.998 128.502 654.143C131.5 664.093 130.002 673.005 127.401 681.503C123.639 693.795 122.467 705.82 124.095 719.203ZM101.135 7.74722C97.0421 5.04924 94.0603 6.46984 93.2835 12.0618C91.4355 25.3657 89.5122 38.6826 88.47 52.0606C88.1642 55.9853 89.6597 61.0838 92.2291 63.9289C95.2228 67.2437 100.3 68.6766 105.023 71.2226C104.858 67.9476 104.785 65.4687 104.6 62.9983C103.793 52.2744 102.809 41.5614 102.176 30.8276C101.738 23.3868 101.768 15.9183 101.135 7.74722ZM113.697 571.112C108.051 599.491 110.525 627.428 118.379 655.045C119.732 659.803 121.335 664.237 119.239 669.412C118.226 671.912 119.402 675.277 119.488 678.253C119.529 679.674 119.7 681.246 119.197 682.503C114.899 693.258 113.762 704.401 114.981 715.819C115.211 717.978 116.147 720.062 116.757 722.18C117.192 722.043 117.628 721.906 118.064 721.769C118.064 713.543 117.423 705.253 118.238 697.108C119.113 688.367 123.864 680.13 121.793 670.905C121.561 669.873 122.351 668.653 122.416 667.505C122.573 664.699 123.32 661.66 122.541 659.107C112.463 626.078 109.878 592.905 119.727 559.322C120.256 557.515 120.099 555.34 119.7 553.455C115.003 531.219 116.694 509.448 124.187 488.059C124.523 487.097 124.669 486.069 124.903 485.073C124.501 484.898 124.099 484.723 123.697 484.549C122.826 486.095 121.717 487.555 121.121 489.2C115.342 505.144 113.712 521.711 115.436 538.407C116.555 549.232 117.627 559.801 113.697 571.112ZM315.175 329.689C315.175 325.834 315.175 321.98 315.175 318.395C303.92 324.302 293.675 329.626 283.518 335.112C282.71 335.549 281.961 337.209 282.123 338.137C282.857 342.332 283.928 346.468 285.186 351.98C292.887 348.39 300.566 345.63 307.274 341.347C310.77 339.115 312.553 334.201 315.175 329.689ZM155.175 506.204C155.175 503.629 155.175 501.054 155.175 498.435C149.789 497.904 145.066 497.439 139.834 496.924C139.079 500.552 138.374 503.941 137.623 507.551C143.251 508.249 147.978 508.949 152.73 509.307C153.485 509.364 154.356 507.88 155.175 506.204ZM55.9335 65.5171C57.1375 69.0083 58.3414 72.4995 59.6151 76.1928C70.5918 67.5308 69.2612 70.6608 65.612 59.2158C65.5622 59.0596 65.4781 58.9142 65.4072 58.765C63.5004 54.7537 60.5906 53.9012 57.7359 57.2729C56.2257 59.0567 56.3425 62.2182 55.9335 65.5171ZM296.874 320.396C300.758 317.86 304.626 315.3 308.531 312.797C311.235 311.064 311.533 309.242 309.84 307.753C300.781 312.591 292.346 317.443 283.58 321.595C280.343 323.129 279.202 324.545 280.595 328.325C285.871 325.798 291.07 323.308 296.874 320.396ZM70.9551 52.5189C71.4986 56.4221 72.042 60.3254 72.6692 64.8298C75.3577 63.7299 76.8274 62.998 78.3767 62.5297C80.0829 62.0141 81.8623 61.7406 84.0095 61.2749C83.2752 58.875 82.6516 56.6923 81.9403 54.5385C79.6347 47.5577 77.1273 46.9352 70.9551 52.5189ZM302.797 357.331C306.785 355.469 309.638 352.671 310.833 348.028C302.962 351.341 295.62 354.761 288.027 357.482C284.39 358.785 284.494 360.521 285.804 364.114C291.408 361.93 296.79 359.831 302.797 357.331ZM244.083 325.172C243.358 322.734 242.633 320.295 241.941 317.969C240.023 319.417 239.224 320.393 238.215 320.719C233.263 322.322 230.922 327.621 233.602 331.481C232.856 331.836 232.111 332.192 230.791 332.822C237.698 333.135 240.833 331.395 244.083 325.172ZM149.023 266.667C148.27 258.701 144.567 252.323 139.43 246.717C138.932 246.946 138.434 247.176 137.936 247.406C141.123 256.454 144.309 265.502 147.496 274.549C148.007 274.469 148.517 274.388 149.028 274.307C149.028 272.056 149.028 269.804 149.023 266.667ZM234.073 294.211C234.245 293.52 234.417 292.829 234.589 292.138C229.23 291.551 223.87 290.964 217.199 290.233C221.542 294.548 224.644 297.63 227.573 300.541C229.55 298.671 231.586 296.744 234.073 294.211ZM74.4083 293.164C73.6389 292.437 72.8696 291.711 71.5416 290.456C71.6033 297.283 73.4726 302.227 78.1065 305.803C78.6668 305.56 79.227 305.316 79.7873 305.073C78.162 301.281 76.5367 297.49 74.4083 293.164ZM222.822 315.988C222.727 315.578 222.631 315.168 222.535 314.758C222.415 314.849 222.183 314.956 222.193 315.029C222.249 315.445 222.364 315.854 222.822 315.988ZM218.48 316.622L218.576 316.454C218.576 316.454 218.385 316.477 218.48 316.622Z" fill="#18345C"/>
<path id="Vector_2" d="M106.583 1C112.231 15.0271 109.318 29.626 109.961 44.4312C109.527 41.3914 108.971 37.9 108.807 34.3904C108.459 26.9149 108.398 19.4262 108.056 11.9504C107.859 7.65135 106.69 3.72005 102.224 1.26064C103.389 1 104.778 1 106.583 1Z" fill="#E4E7EC"/>
<path id="Vector_3" d="M90.4632 939C89.1965 937.995 88.4439 936.943 87.5798 935.993C85.0698 933.234 82.5151 930.514 79.9506 927.418C80.2986 926.986 80.9088 926.733 81.0155 926.871C86.5369 933.993 94.5616 936.311 102.886 938.64C98.9755 939 94.9509 939 90.4632 939Z" fill="#F2F4F6"/>
<path id="Vector_4" d="M149.807 929.746C147.39 932.79 144.708 935.52 142.013 938.625C137.975 939 133.951 939 129.463 939C132.95 937.673 137.035 936.642 140.809 934.927C143.912 933.516 146.645 931.294 149.807 929.746Z" fill="#F1F3F5"/>
<path id="Vector_5" d="M336 909.625C335.252 910.595 334.503 911.19 333.408 911.928C333.866 910.592 334.67 909.112 335.737 907.316C336 907.75 336 908.5 336 909.625Z" fill="#F4F5F7"/>
<path id="Vector_6" d="M206.735 585.69C195.6 601.257 191.972 619.206 189.932 637.743C189.024 645.989 187.799 654.251 185.959 662.334C182.707 676.616 175.175 682.309 160.43 683.505C166.013 684.927 171.597 686.35 177.944 687.967C178.135 700.51 178.169 713.87 173.19 726.745C171.279 731.688 167.244 733.783 162.664 733.74C155.573 733.675 148.458 732.804 141.435 731.736C139.899 731.502 137.886 729.197 137.486 727.515C133.862 712.283 132.972 697.357 138.271 681.887C140.843 674.379 142.48 666.055 140.026 656.921C131.309 624.471 130.068 591.721 139.145 558.823C140.699 553.19 137.85 546.448 137.65 540.199C137.343 530.603 137.569 520.99 137.569 511.017C144.763 512.003 152.114 513.01 159.828 514.068C159.828 507.837 159.828 501.795 159.828 495.407C153.859 494.81 148.106 494.236 141.905 493.616C142.964 489.569 143.913 485.826 149.349 486.534C159.885 487.906 170.489 488.899 180.938 490.761C200.576 494.26 220.066 494.942 239.052 488.005C246.117 485.424 252.603 481.259 259.423 477.781C265.735 487.316 255.959 504.321 241.037 508.083C240.779 505.44 240.676 502.824 240.191 500.281C240.029 499.434 239.004 498.437 238.156 498.148C237.618 497.965 235.985 499.025 236.021 499.421C236.72 507.224 230.266 505.511 226.196 506.845C224.778 507.31 223.207 507.308 221.036 507.613C224.537 510.509 224.89 510.548 235.531 509.7C235.814 511.08 236.103 512.493 236.565 514.746C241.418 512.834 246.114 510.984 251.106 509.018C251.589 514.806 253.125 520.081 258.906 522.964C259.557 523.289 259.816 524.521 260.126 525.379C260.741 527.083 260.734 529.495 261.919 530.426C266.974 534.399 265.95 539.802 265.752 544.92C265.577 549.432 267.246 552.3 271.056 554.768C273.188 556.15 275.39 558.969 275.7 561.38C278.975 586.844 281.414 612.391 276.907 637.958C275.096 648.23 271.717 657.982 263.169 664.914C261.445 666.313 259.411 667.33 257.52 668.523C257.599 668.948 257.678 669.373 257.757 669.797C263.725 668.661 269.693 667.524 276.321 666.262C276.63 668.852 277.396 672.354 277.402 675.857C277.419 687.46 277.585 699.09 276.872 710.659C276.325 719.54 270.835 725.114 262.285 727.613C253.335 730.229 244.304 730.741 235.13 728.942C228.926 727.726 225.278 724.211 223.812 717.959C220.845 705.313 220.799 692.6 222.022 679.77C222.297 676.894 222.172 673.813 221.439 671.035C217.452 655.936 213.612 640.778 208.939 625.885C205.295 614.274 204.847 602.738 206.744 590.912C206.98 589.438 207.017 587.932 207.059 586.125C207.074 585.809 207.175 585.809 207.277 585.809C207.096 585.769 206.916 585.73 206.735 585.69ZM230.983 627.393C228.89 620.711 226.797 614.029 224.703 607.346C224.11 612.527 224.256 617.513 225.045 622.394C226.501 631.406 227.806 640.498 230.159 649.293C232.587 658.37 242.172 662.81 251.003 659.75C242.748 657.674 238.385 652.064 236.147 644.368C234.57 638.946 232.841 633.568 230.983 627.393ZM200.893 500.152C191.554 499.001 182.216 497.851 172.949 496.709C172.949 503.292 172.949 509.543 172.949 516.459C182.757 517.693 192.193 518.879 202.03 520.116C201.906 518.267 201.966 517.089 201.805 517.058C194.28 515.608 186.735 514.257 178.934 512.848C178.934 508.734 178.934 504.997 178.934 501.262C185.349 501.872 191.462 502.598 197.597 502.916C198.841 502.981 200.164 501.505 200.893 500.152ZM213.114 497.257C212.16 498.751 210.511 500.189 210.386 501.749C210.029 506.205 210.237 510.712 210.329 515.197C210.407 518.952 212.728 520.673 216.175 520.441C220.306 520.164 224.425 519.494 228.5 518.733C229.459 518.554 230.222 517.328 231.076 516.584C228.077 515.39 225.507 515.694 223.051 515.296C220.962 514.958 217.947 514.374 217.171 512.922C213.869 506.742 217.275 500.703 224.267 499.501C226.065 499.192 227.934 499.241 229.703 498.834C230.746 498.593 231.657 497.78 232.627 497.224C232.473 496.584 232.318 495.944 232.164 495.303C226.077 495.867 219.99 496.43 213.114 497.257ZM223.6 605.027C223.627 604.892 223.613 604.96 223.6 605.027Z" fill="#FEFEFE"/>
<path id="Vector_7" d="M242.087 801.921C235.597 793.031 229.46 783.96 226.383 773.192C222.96 761.215 221.623 749.176 224.497 737.39C233.512 737.892 242.161 739.276 250.641 738.589C258.921 737.918 267.03 735.132 275.856 733.129C279.592 744.123 281.51 756.488 280 769.585C278.208 766.039 276.416 762.492 274.624 758.946C274.251 759.081 273.879 759.216 273.506 759.351C274.666 764.693 275.031 770.374 277.132 775.316C284.088 791.677 286.093 808.962 288.026 826.343C289.201 836.917 290.288 847.55 292.403 857.955C294.264 867.108 300.433 873.633 309.319 876.485C323.917 881.171 327.794 889.833 323.714 904.17C323.016 906.622 320.252 909.362 317.805 910.294C304.851 915.226 291.533 915.746 278.143 911.968C276.406 911.478 274.372 910.876 273.235 909.631C268.731 904.703 262.672 905.021 256.892 904.051C252.156 903.257 247.384 902.263 242.861 900.69C228.579 895.72 225.237 883.226 225.23 872.312C225.229 871.285 226.122 869.604 226.959 869.332C233.876 867.087 240.765 864.468 247.884 863.217C255.134 861.943 262.635 862.094 269.577 861.649C264.967 858.052 258.589 856.848 252.089 857.35C245.828 857.834 239.614 859.23 233.444 860.534C225.148 862.288 221.634 859.655 221.983 851.23C222.113 848.101 222.613 844.91 223.483 841.904C227.412 828.317 228.691 814.494 227.949 800.406C227.856 798.64 228.914 796.814 229.439 795.015C230.958 795.835 232.531 796.571 233.985 797.493C236.362 799.001 238.663 800.63 241.484 802.449C242.241 802.629 242.511 802.569 242.78 802.509C242.549 802.313 242.318 802.117 242.087 801.921Z" fill="#BD965D"/>
<path id="Vector_8" d="M146.149 821.173C148.709 819.68 151.42 818.389 153.786 816.633C155.999 814.991 157.845 812.856 160.926 809.913C160.58 813.914 159.973 816.611 160.185 819.241C161.156 831.315 162.397 843.367 163.443 855.436C163.685 858.232 163.93 861.121 163.504 863.864C162.09 872.968 158.205 874.737 149.497 871.883C143.44 869.898 137.005 868.83 130.653 868.101C128.079 867.805 125.277 869.497 122.708 870.991C131.758 871.02 139.231 874.794 146.722 878.777C149.446 880.226 152.627 881.288 155.676 881.519C158.837 881.758 159.675 883.2 159.837 885.822C160.475 896.166 158.254 906.428 146.656 911.353C145.633 911.787 144.299 913.017 144.239 913.949C143.724 921.993 137.947 924.981 131.55 926.845C121.41 929.802 111.117 928.936 100.99 926.504C87.5182 923.269 84.4097 918.166 86.9598 904.511C87.3073 902.651 87.5217 900.505 86.9414 898.779C85.1452 893.437 85.0889 888.137 87.585 883.217C96.1254 866.383 98.1547 847.955 100.941 829.737C103.462 813.253 106.228 796.932 113.424 781.629C115.564 777.078 116.16 771.801 117.463 766.856C117.072 766.669 116.682 766.482 116.291 766.295C114.759 768.744 113.227 771.192 110.941 774.846C110.159 760.087 113.454 747.614 118.338 734.815C121.31 735.975 124.001 737.024 126.769 738.104C126.079 742.419 125.443 746.399 124.807 750.38C125.069 750.466 125.332 750.553 125.594 750.639C127.77 747.803 129.756 744.786 132.211 742.216C133.256 741.122 135.422 740.231 136.841 740.5C147.829 742.582 158.791 744.346 170.722 741.584C171.63 771.028 164.105 797.126 145.511 820.331C144.984 821.01 144.788 821.253 144.592 821.496C145.111 821.388 145.63 821.281 146.149 821.173Z" fill="#BD965D"/>
<path id="Vector_9" d="M95.3664 174.521C97.27 187.408 99.4144 199.841 100.691 212.363C101.199 217.343 99.7845 222.518 100.277 228.232C102.106 225.298 103.935 222.363 106.117 218.862C107.505 220.145 109.19 221.386 110.487 222.95C123.617 238.78 128.782 256.844 123.92 276.939C119.074 296.965 98.2392 302.912 83.9364 288.01C77.9187 281.739 74.2493 273.091 70.0731 265.226C67.6806 260.72 66.4136 255.617 64.4743 250.331C63.5837 252.589 62.8415 254.471 62.0993 256.352C61.5311 256.331 60.9629 256.311 60.3947 256.29C59.6422 240.693 58.2365 225.092 58.3208 209.5C58.4053 193.9 59.9792 178.308 60.9377 162.078C59.2649 163.491 57.8944 164.648 55.2432 166.887C57.1022 156.036 57.7341 146.327 60.5773 137.315C63.9407 126.655 63.6337 117.713 55.7694 109.178C52.9337 106.1 51.5416 101.682 49.5374 97.8506C45.7252 90.5636 46.5215 83.4559 51.6486 76.3624C51.9555 79.9508 52.7636 83.5822 52.4608 87.1184C51.8994 93.6745 59.1356 100.65 66.2791 99.1723C70.6991 98.2582 74.8126 95.8623 79.9492 93.7711C84.9086 96.982 91.1687 99.53 97.9912 95.782C92.0381 91.5437 86.1307 87.3379 80.1455 83.0767C76.1901 85.516 72.1099 88.4404 67.6486 90.564C66.0696 91.3156 62.7267 90.8134 61.7146 89.6055C60.727 88.4268 60.8387 84.6971 61.9392 83.6811C66.662 79.3206 71.5716 74.8973 77.1509 71.8455C79.7876 70.4032 84.5025 71.0645 87.5394 72.4212C92.9569 74.8413 97.9332 78.3401 102.874 81.711C107.486 84.858 109.118 89.1581 107.136 94.7563C102.629 107.485 94.1191 115.758 80.9324 119.053C79.8049 119.334 78.656 119.529 77.5246 119.797C77.2143 119.87 76.9315 120.06 76.6382 120.201C80.9942 123.391 86.1202 123.97 95.9985 122.173C91.7407 139.572 92.5231 156.838 95.3664 174.521ZM67.0291 187.162C69.2354 172.064 71.6769 156.995 73.4705 141.849C73.8813 138.38 72.0608 134.646 71.2673 131.034C66.0416 149.51 65.5434 168.07 65.8936 186.691C65.9015 187.112 66.5281 187.52 67.0291 187.162Z" fill="#BC965D"/>
<path id="Vector_10" d="M269.109 172.292C266.446 180.999 266.187 189.691 267.652 198.766C268.714 205.348 267.859 212.239 267.859 219.734C266.57 217.981 265.68 216.77 264.888 215.693C264.61 220.321 264.338 224.859 264.028 230.013C262.593 229.428 261.766 229.091 260.376 228.411C258.616 227.795 257.419 227.521 256.077 227.082C255.933 226.918 255.649 226.584 255.77 226.247C259.325 220.512 260.156 215.01 255.814 209.771C251.499 204.563 245.708 202.939 238.911 203.323C239.16 205.323 239.339 206.763 239.133 208.067C229.998 203.287 221.439 203.554 212.744 208.816C208.976 202.33 207.788 201.781 200.614 203.598C198.541 204.123 196.474 204.778 194.513 205.625C183.245 210.498 180.894 217.681 187.045 227.952C186.918 228.09 186.665 228.368 186.299 228.338C182.326 227.436 179.35 223.52 174.732 226.066C174.292 226.415 174.16 226.748 174.034 227.041C174.042 227 174.122 227.019 174.122 227.019C166.073 229.025 162.755 235.224 160.277 243.074C154.028 234.125 151.595 224.615 151.233 214.066C150.033 217.353 148.833 220.64 147.633 223.927C147.117 223.895 146.602 223.864 146.086 223.832C146.482 214.774 146.878 205.716 147.274 196.64C146.452 197.38 145.353 198.369 144.254 199.358C143.779 199.176 143.304 198.994 142.829 198.811C145.749 189.574 148.674 180.338 151.588 171.098C152.13 169.378 152.632 167.645 153.643 165.459C155.478 162.485 156.822 159.969 157.95 157.857C163.89 155.519 169.95 153.133 176.456 150.572C172.017 148.264 167.929 146.138 163.885 144.001C163.929 143.99 163.939 144.081 164.1 143.747C161.481 141.627 158.7 139.841 155.953 138.038C155.986 138.02 155.982 138.095 155.954 137.695C153.567 136.799 151.208 136.304 148.848 135.809C152.127 131.421 157.089 131.216 161.343 132.463C168.251 134.488 174.803 137.745 181.462 140.583C182.77 141.141 183.883 142.156 185.609 143.31C185.371 141.267 185.209 139.868 185.078 138.749C206.441 129.987 227.567 129.149 248.67 138.781C250.453 139.594 252.615 139.584 254.385 140.414C255.392 140.887 255.962 142.29 256.66 143.564C256.545 144.106 256.499 144.357 256.454 144.609C256.634 144.404 256.815 144.199 256.995 143.994C260.292 142.573 263.505 140.896 266.904 139.792C272.059 138.118 276.272 139.619 278.774 144.73C275.259 145.903 271.797 146.289 268.924 147.796C265.753 149.46 263.122 152.152 259.501 154.987C262.796 157.614 265.962 160.139 268.46 162.131C268.678 165.537 268.893 168.915 269.109 172.292ZM259.208 193.085C262.811 188.771 260.664 184.874 257.842 181.559C252.572 175.369 245.724 173.525 237.691 174.894C229.004 176.375 226.404 182.229 231.232 190.445C230.351 194.093 232.559 195.825 235.509 196.555C243.592 198.557 251.645 199.714 259.208 193.085ZM201.97 199.015C205.903 198.14 209.868 197.39 213.757 196.352C216.924 195.508 217.603 193.15 217.395 189.769C223.336 185.74 221.634 177.809 215.419 174.78C213.152 173.675 210.309 173.668 207.705 173.351C196.943 172.04 187.088 173.944 179.335 182.158C175.436 186.289 175.073 192.51 179.149 194.986C185.783 199.019 193.136 201.418 201.97 199.015Z" fill="#BD975E"/>
<path id="Vector_11" d="M175.038 226.051C179.35 223.52 182.326 227.436 186.483 228.518C187.482 228.665 187.932 228.601 188.382 228.538C187.978 228.296 187.575 228.055 187.172 227.813C180.894 217.681 183.245 210.498 194.513 205.625C196.474 204.778 198.541 204.123 200.614 203.598C207.789 201.781 208.976 202.33 213.001 209.041C216.673 212.193 220.105 214.716 222.725 217.906C224.971 220.64 229.929 221.631 231.994 218.839C234.576 215.349 237.017 211.753 239.518 208.202C239.339 206.763 239.16 205.323 238.911 203.323C245.708 202.939 251.499 204.563 255.814 209.771C260.156 215.01 259.325 220.512 255.554 226.358C255.012 227.05 254.808 227.295 254.604 227.54C255.143 227.442 255.682 227.345 256.222 227.247C257.419 227.521 258.616 227.795 259.97 228.284C266.969 244.618 261.014 258.639 252.945 272.313C247.899 272.692 246.685 278.096 242.722 280.059C237.908 282.444 233.176 282.238 228.171 281.195C226.269 280.798 224.182 281.011 222.215 281.247C207.164 283.053 206.489 282.924 194.55 274.86C194.209 275.96 193.9 276.959 193.221 279.147C189.223 274.185 185.654 269.756 181.794 264.967C181.325 267.064 180.884 269.037 180.443 271.009C180.1 271.127 179.757 271.245 179.414 271.363C177.98 267.466 176.546 263.57 175.061 259.535C174.623 259.858 173.779 260.482 172.951 261.093C164.999 251.702 163.491 235.918 174.026 227.35C174.122 227.019 174.042 227 174.311 227.013C174.733 226.701 174.885 226.376 175.038 226.051ZM216.943 248.544C223.899 248.222 230.94 248.469 237.792 247.449C248.739 245.819 250.868 242.384 249.317 231.199C243.159 233.754 237.087 233.824 230.964 230.942C229.922 230.452 228.128 230.827 226.986 231.404C219.556 235.159 211.705 235.702 203.637 234.765C201.775 234.549 199.944 234.062 197.957 233.672C198.335 242.863 200.536 245.663 208.629 247.506C211.049 248.057 213.563 248.194 216.943 248.544ZM213.492 255.228C224.522 256.292 235.656 257.882 245.618 249.583C238.361 250.538 231.915 251.84 225.426 252.111C218.972 252.38 212.474 251.614 205.996 251.302C205.896 251.57 205.795 251.837 205.695 252.105C208.02 253.094 210.344 254.083 213.492 255.228Z" fill="#FCFCFD"/>
<path id="Vector_12" d="M28.8532 754.136C34.1484 761.976 42.3368 764.456 50.9874 766.029C58.3937 767.376 62.6817 772.024 61.8008 777.873C60.8321 784.305 54.8276 788.14 48.0231 786.54C30.9701 782.53 20.2747 771.284 14.1129 755.56C5.46617 733.494 8.03915 711.453 15.7296 689.737C25.5292 662.064 43.6294 640.19 64.1825 619.813C77.1538 606.953 88.9224 592.879 101.232 579.351C101.869 578.65 102.519 577.96 103.296 577.122C102.885 587.981 102.578 598.48 101.983 608.963C101.902 610.376 100.575 611.907 99.4745 613.043C89.3986 623.441 79.2028 633.722 69.1234 644.117C51.3546 662.441 37.3846 683.057 31.5341 708.319C27.7617 724.609 28.2055 741.458 38.3672 757.609C34.925 756.035 32.4831 754.918 29.5372 753.551C28.7688 753.364 28.5044 753.428 28.24 753.491C28.4444 753.706 28.6488 753.921 28.8532 754.136Z" fill="#BB955D"/>
<path id="Vector_13" d="M172.398 352.131C180.493 341.256 190.712 338.906 203.737 339.474C214.297 339.935 217.987 345.825 222.214 352.874C222.594 353.508 222.611 354.448 222.566 355.233C221.076 381.295 219.601 407.358 217.988 433.413C217.785 436.705 217.179 440.061 216.166 443.195C214.094 449.609 209.729 452.472 202.916 452.472C196.422 452.472 189.927 452.476 183.433 452.468C182.27 452.467 181.049 452.633 179.954 452.345C176.975 451.561 167.35 437.321 167.529 434.135C169.061 406.904 170.6 379.673 172.398 352.131ZM208.844 375.504C208.844 369.883 208.844 364.263 208.844 358.493C201.812 357.921 195.607 357.415 188.87 356.867C187.714 382.437 186.569 407.758 185.391 433.796C192.881 433.796 199.248 433.796 206.67 433.796C207.396 414.681 208.12 395.592 208.844 375.504Z" fill="#FDFDFE"/>
<path id="Vector_14" d="M298.36 438.295C298.118 440.386 297.984 442.045 297.803 443.698C297.77 443.995 297.542 444.27 297.154 445.07C295.506 443.761 293.948 442.525 292.391 441.289C292.034 441.466 291.677 441.644 291.32 441.822C292.995 446.056 294.471 450.383 296.385 454.505C301.02 464.484 305.476 474.491 306.351 485.661C307.472 499.979 303.985 513.023 295.409 524.594C294.243 526.167 292.723 527.694 291.022 528.585C289.654 529.301 287.765 529.021 286.107 529.184C286.475 527.65 286.368 525.705 287.285 524.646C294.437 516.388 296.861 506.673 296.155 495.881C295.704 497.217 295.45 498.663 294.771 499.871C290.567 507.347 286.46 514.891 281.907 522.153C280.015 525.171 276.695 526.776 273.372 524.052C270.059 521.337 271.773 518.655 274.023 515.958C280.939 507.67 284.862 498.178 284.554 487.075C283.041 490.369 281.796 493.822 279.955 496.922C276.907 502.054 273.592 507.041 270.119 511.897C269.309 513.029 267.102 514.251 266.097 513.887C264.729 513.392 263.03 511.424 263.013 510.068C262.974 507.031 263.393 503.786 264.505 500.974C267.623 493.089 271.853 485.414 270.976 476.666C270.475 471.675 271.865 467.436 273.117 462.855C274.592 457.459 274.924 451.761 275.943 446.23C278.04 434.838 280.343 423.484 282.413 412.087C284.156 402.495 286.295 392.918 287.137 383.236C287.929 374.139 287.426 373.917 297.108 372.113C300.414 379.897 298.837 387.647 296.728 395.326C296.53 396.046 294.716 396.323 293.291 396.969C299.072 409.71 299.718 423.67 298.36 438.295Z" fill="#BA955D"/>
<path id="Vector_15" d="M267.978 413.001C267.008 421.852 265.885 430.263 265.233 438.71C264.794 444.411 259.936 450.176 254.308 450.737C252.653 450.902 250.984 450.991 249.321 451.005C245.776 451.034 240.31 452.418 239.046 450.713C235.213 445.548 231.232 439.378 230.528 433.231C228.942 419.382 229.752 405.497 233.442 391.673C235.621 383.505 235.53 374.493 235.074 365.935C234.701 358.916 235.351 353.225 240.544 347.892C243.634 344.718 246.132 342.652 250.564 344.131C251.812 344.547 253.168 344.659 254.484 344.85C266.863 346.645 270.18 350.906 271.623 363.69C273.497 380.287 272.949 396.553 267.978 413.001ZM258.766 423.481C259.826 415.771 260.464 407.974 262.04 400.371C264.765 387.229 265.149 374.173 262.982 361.064C257.401 360.533 252.377 360.054 247.001 359.543C249.225 372.656 247.032 385.023 244.518 397.472C242.107 409.415 242.769 421.511 244.412 433.736C249.367 433.969 253.925 434.183 258.583 434.402C258.583 430.696 258.583 427.566 258.766 423.481Z" fill="#FBFCFC"/>
<path id="Vector_16" d="M124.05 718.777C122.467 705.82 123.639 693.795 127.401 681.503C130.002 673.005 131.5 664.093 128.502 654.143C119.118 622.998 118.013 591.355 127.603 559.71C128.792 555.785 127.083 550.919 126.474 546.522C123.77 527.016 123.648 507.71 130.502 488.875C131.411 486.376 132.227 483.929 135.688 485.813C134.025 493.197 132.103 500.533 130.753 507.973C128.139 522.374 128.852 536.763 131.25 551.166C131.874 554.916 131.802 559.069 130.882 562.745C122.582 595.92 124.375 628.708 134.38 661.166C135.599 665.121 134.624 668.009 133.638 671.761C130.957 681.969 128.873 692.491 128.13 703C127.532 711.462 129.236 720.087 129.911 728.538C125.052 727.748 125.176 723.063 124.05 718.777Z" fill="#EEF0F3"/>
<path id="Vector_17" d="M101.362 8.10472C101.768 15.9183 101.738 23.3868 102.176 30.8276C102.809 41.5614 103.793 52.2744 104.6 62.9983C104.785 65.4687 104.858 67.9476 105.023 71.2226C100.3 68.6766 95.2228 67.2437 92.2291 63.9289C89.6597 61.0838 88.1642 55.9853 88.47 52.0606C89.5122 38.6826 91.4355 25.3657 93.2835 12.0618C94.0603 6.46984 97.0421 5.04924 101.362 8.10472Z" fill="#BA945D"/>
<path id="Vector_18" d="M113.775 570.691C117.627 559.801 116.555 549.232 115.436 538.407C113.712 521.711 115.342 505.144 121.121 489.2C121.717 487.555 122.826 486.095 123.697 484.549C124.099 484.723 124.501 484.898 124.903 485.073C124.669 486.069 124.523 487.097 124.187 488.059C116.694 509.448 115.002 531.219 119.7 553.455C120.098 555.34 120.256 557.515 119.727 559.322C109.878 592.905 112.463 626.078 122.541 659.107C123.32 661.66 122.573 664.699 122.416 667.505C122.351 668.653 121.561 669.873 121.793 670.905C123.864 680.13 119.113 688.367 118.238 697.108C117.423 705.253 118.064 713.543 118.064 721.769C117.628 721.906 117.192 722.043 116.757 722.18C116.147 720.062 115.211 717.978 114.98 715.819C113.762 704.401 114.899 693.258 119.197 682.503C119.7 681.246 119.529 679.674 119.488 678.253C119.402 675.277 118.226 671.912 119.239 669.412C121.335 664.237 119.732 659.803 118.379 655.045C110.525 627.428 108.051 599.491 113.775 570.691Z" fill="#E5E8ED"/>
<path id="Vector_19" d="M315.142 330.094C312.553 334.201 310.77 339.115 307.274 341.347C300.566 345.63 292.887 348.39 285.186 351.98C283.928 346.468 282.857 342.332 282.123 338.137C281.961 337.209 282.71 335.549 283.518 335.112C293.675 329.626 303.92 324.302 315.175 318.395C315.175 321.98 315.175 325.834 315.142 330.094Z" fill="#FBFBFC"/>
<path id="Vector_20" d="M140.168 131.299C141.639 129.204 143.036 126.779 145.096 125.888C152.011 122.896 159.045 121.031 166.611 124.621C169.826 126.146 174.207 125.405 177.209 127.153C183.671 130.915 188.37 126.434 193.981 125.274C202.561 123.5 211.533 123.249 220.35 123.124C226.114 123.043 232.023 123.808 237.631 125.168C242.051 126.24 246.083 128.863 250.35 130.646C251.364 131.07 252.63 130.965 253.781 130.969C260.947 130.995 268.113 130.982 275.279 130.982C280.21 130.982 285.897 134.564 287.636 139.124C290.622 146.951 291.48 154.864 287.419 162.917C287.192 161.776 287.429 160.481 287.423 159.188C287.398 153.834 288.3 148.221 286.993 143.188C285.059 135.741 278.876 131.983 271.348 133.203C260.673 134.934 250.878 133.375 240.755 129.491C223.544 122.887 205.929 123.247 188.746 130.342C185.069 131.86 181.893 131.662 178.243 130.346C173.591 128.668 168.736 127.442 163.877 126.477C155.363 124.786 147.402 126.228 140.168 131.299Z" fill="#F4F6F7"/>
<path id="Vector_21" d="M331.798 913.768C330.116 919.393 325.572 922.125 320.786 923.887C312.226 927.038 303.36 928.779 294.05 928.124C288.149 927.71 282.783 925.958 277.169 924.421C269.521 922.327 262.581 918.546 254.281 917.519C242.821 916.1 231.464 911.879 222.962 902.456C223.825 902.284 224.909 902.241 225.572 902.748C235.897 910.646 247.793 914.294 260.455 916.222C264.243 916.799 268.087 918.101 271.496 919.863C282.188 925.389 293.538 925.707 305.043 924.541C314.909 923.541 324.421 921.294 331.798 913.768Z" fill="#F4F5F7"/>
<path id="Vector_22" d="M44.725 745.967C49.1584 751.788 55.8585 752.502 62.0812 753.909C68.6854 755.402 77.0893 764.653 77.9643 772.589C79.0177 782.142 77.1949 790.765 67.992 795.916C60.772 799.956 53.0552 800.323 45.2511 797.729C40.3519 796.1 35.7357 794.045 31.1479 791.421C25.7419 788.329 21.6813 784.431 17.9541 779.42C19.1357 779.751 20.5362 780.229 21.5146 781.154C30.6099 789.751 40.9452 795.537 53.757 796.294C65.9141 797.012 75.0596 790.776 76.7128 780.336C78.4389 769.435 70.7073 758.585 59.3301 755.927C57.0658 755.398 54.8074 754.843 52.5515 754.279C48.2016 753.192 45.2089 750.742 44.725 745.967Z" fill="#F2F3F6"/>
<path id="Vector_23" d="M269.348 172.019C268.893 168.915 268.678 165.537 268.46 162.131C265.962 160.139 262.796 157.614 259.501 154.987C263.122 152.152 265.753 149.46 268.924 147.796C271.797 146.289 275.259 145.903 278.833 145.094C282.694 150.431 279.967 154.826 277.249 159.234C274.683 163.397 272.141 167.574 269.348 172.019Z" fill="#FBFAFA"/>
<path id="Vector_24" d="M163.84 144.012C167.929 146.138 172.017 148.264 176.456 150.572C169.95 153.133 163.89 155.519 157.95 157.857C156.822 159.969 155.478 162.485 153.778 165.094C152.637 162.417 152.103 159.542 151.009 156.9C149.348 152.89 147.298 149.041 146.056 145.143C147.746 147.319 148.793 149.477 149.198 150.311C156.325 150.311 162.646 150.311 169.967 150.311C167.169 147.435 165.505 145.724 163.84 144.012Z" fill="#FAF9F7"/>
<path id="Vector_25" d="M163.885 144.001C165.505 145.724 167.169 147.435 169.967 150.311C162.646 150.311 156.325 150.311 149.198 150.311C148.793 149.477 147.746 147.319 146.371 144.998C146.255 143.158 146.467 141.48 147.135 139.231C150.388 138.471 153.185 138.283 155.982 138.095C155.982 138.095 155.986 138.02 155.989 138.423C158.64 140.578 161.29 142.33 163.939 144.081C163.939 144.081 163.929 143.99 163.885 144.001Z" fill="black"/>
<path id="Vector_26" d="M155.174 506.657C154.356 507.88 153.485 509.364 152.73 509.307C147.978 508.949 143.251 508.249 137.623 507.551C138.374 503.941 139.079 500.552 139.834 496.924C145.066 497.439 149.789 497.904 155.175 498.435C155.175 501.054 155.175 503.629 155.174 506.657Z" fill="#F7F8FA"/>
<path id="Vector_27" d="M55.8292 65.1374C56.3425 62.2182 56.2256 59.0568 57.7359 57.273C60.5906 53.9012 63.5004 54.7537 65.4071 58.7651C65.478 58.9142 65.5622 59.0596 65.612 59.2158C69.2612 70.6608 70.5918 67.5308 59.6151 76.1928C58.3414 72.4995 57.1375 69.0083 55.8292 65.1374Z" fill="#B8945D"/>
<path id="Vector_28" d="M266.448 259.604C266.435 260.696 266.163 261.949 265.926 263.043C273.568 265.745 281.307 267.687 288.299 271.141C298.581 276.22 309.67 280.695 315.049 292.573C314.698 293.01 314.069 293.25 313.976 293.116C306.454 282.358 294.92 277.569 283.484 272.702C277.276 270.059 270.927 267.745 264.153 265.092C264.852 263.265 265.52 261.515 266.448 259.604Z" fill="#F2F4F6"/>
<path id="Vector_29" d="M296.571 320.607C291.07 323.308 285.871 325.798 280.595 328.325C279.202 324.545 280.343 323.129 283.58 321.595C292.346 317.443 300.781 312.591 309.84 307.753C311.533 309.242 311.235 311.064 308.531 312.797C304.626 315.3 300.758 317.86 296.571 320.607Z" fill="#F2F3F6"/>
<path id="Vector_30" d="M71.1615 52.1989C77.1272 46.9352 79.6347 47.5577 81.9402 54.5385C82.6516 56.6923 83.2752 58.875 84.0095 61.2749C81.8623 61.7406 80.0829 62.014 78.3767 62.5297C76.8274 62.998 75.3577 63.7299 72.6692 64.8298C72.042 60.3254 71.4985 56.4221 71.1615 52.1989Z" fill="#B6925D"/>
<path id="Vector_31" d="M302.484 357.532C296.79 359.831 291.407 361.93 285.804 364.114C284.494 360.521 284.39 358.785 288.027 357.482C295.62 354.761 302.962 351.341 310.833 348.028C309.638 352.671 306.785 355.469 302.484 357.532Z" fill="#F2F4F6"/>
<path id="Vector_32" d="M301.695 841.998C302.69 843.898 303.68 845.93 303.943 848.052C305.155 857.827 311.559 862.542 320.24 864.935C325.371 866.349 333.288 875.947 333.899 882.426C330.091 874.535 323.745 869.799 315.131 866.528C309.175 864.267 304.655 858.688 302.994 851.876C302.219 848.697 301.888 845.409 301.695 841.998Z" fill="#F0F2F5"/>
<path id="Vector_33" d="M244.019 325.56C240.832 331.395 237.697 333.135 230.791 332.822C232.111 332.192 232.856 331.836 233.6 331.475C230.922 327.621 233.263 322.322 238.215 320.719C239.224 320.393 240.023 319.417 241.941 317.969C242.633 320.295 243.358 322.734 244.019 325.56Z" fill="#F3F4F6"/>
<path id="Vector_34" d="M300.816 534.73C300.645 539.708 296.392 540.432 293.38 541.958C289.761 543.792 285.622 544.6 282.504 545.598C283.04 547.616 283.891 550.821 284.748 554.442C283.153 552.682 281.431 550.583 279.98 548.312C278.432 545.89 277.14 543.306 276.257 540.274C286.178 543.899 293.473 539.557 300.816 534.73Z" fill="#EDEFF2"/>
<path id="Vector_35" d="M149.026 267.11C149.028 269.804 149.028 272.056 149.028 274.307C148.517 274.388 148.007 274.469 147.496 274.549C144.309 265.502 141.123 256.454 137.936 247.406C138.434 247.176 138.932 246.946 139.43 246.717C144.567 252.323 148.27 258.701 149.026 267.11Z" fill="#EEF0F3"/>
<path id="Vector_36" d="M218.004 319.05C220.435 321.183 223.486 322.944 225.074 325.584C226.075 327.248 224.887 330.228 224.669 332.756C216.566 332.773 211.84 326.438 216.012 319.141C217.105 318.999 217.554 319.024 218.004 319.05Z" fill="#F8F9FA"/>
<path id="Vector_37" d="M110.673 199.002C111.298 199.006 111.816 199.246 111.789 199.366C110.019 207.331 115.932 210.747 120.547 215.413C125.552 220.474 129.353 226.714 133.836 232.314C135.314 234.16 137.283 235.614 139.051 237.633C135.969 238.314 134.16 236.887 132.174 234.385C125.931 226.518 119.292 218.954 112.573 211.481C109.171 207.698 110.482 203.381 110.673 199.002Z" fill="#EEF0F3"/>
<path id="Vector_38" d="M233.848 294.514C231.586 296.744 229.55 298.671 227.573 300.541C224.644 297.63 221.542 294.548 217.199 290.233C223.87 290.964 229.23 291.551 234.589 292.138C234.417 292.829 234.245 293.52 233.848 294.514Z" fill="#F2F4F6"/>
<path id="Vector_39" d="M306.585 455.131C314.371 470.847 318.509 487.193 314.41 504.985C313.709 504.701 313.025 504.137 313.109 503.733C315.925 490.249 314.237 477.266 309.089 464.588C307.868 461.581 307.172 458.362 306.585 455.131Z" fill="#E4E8EC"/>
<path id="Vector_40" d="M288.117 575.953C288.76 581.181 289.808 586.397 289.958 591.638C290.252 601.902 290.097 612.181 289.996 622.453C289.978 624.323 289.332 626.186 288.944 628.484C288.738 626.099 288.487 623.285 288.4 620.467C287.953 605.93 287.548 591.391 287.406 576.428C287.684 576.003 288.117 575.953 288.117 575.953Z" fill="#E4E8EC"/>
<path id="Vector_41" d="M215.023 883.525C214.621 880.168 214.42 876.379 213.874 872.64C213.461 869.812 212.751 867.004 211.921 864.264C210.192 858.559 209.086 852.866 211.526 847.017C211.729 853.77 210.73 860.5 215.688 866.463C216.82 867.825 215.439 871.223 215.327 873.688C215.184 876.828 215.154 879.972 215.023 883.525Z" fill="#D1D7DE"/>
<path id="Vector_42" d="M172.664 836.006C173.57 838.935 174.341 842.033 174.598 845.173C175.405 855.014 178.702 864.75 175.998 874.746C175.798 875.483 175.204 876.114 174.428 876.933C176.727 863.913 173.846 851.053 171.995 838.134C171.906 837.514 172.186 836.842 172.664 836.006Z" fill="#EBEDF1"/>
<path id="Vector_43" d="M90.1955 578.237C92.117 574.615 94.2248 571.227 96.5204 567.972C100.029 562.996 103.668 558.112 107.596 553.134C106.1 556.513 104.585 560.176 102.349 563.328C98.6316 568.568 94.4513 573.48 90.1955 578.237Z" fill="#F0F2F5"/>
<path id="Vector_44" d="M74.6599 293.431C76.5367 297.49 78.162 301.281 79.7873 305.073C79.227 305.316 78.6668 305.56 78.1065 305.803C73.4726 302.227 71.6033 297.283 71.5416 290.456C72.8696 291.711 73.6389 292.437 74.6599 293.431Z" fill="#E8EBEF"/>
<path id="Vector_45" d="M48.2098 58.9705C48.012 53.2182 53.7166 47.2813 59.3749 46.9002C61.6559 46.7466 63.874 45.6574 66.529 44.9609C67.3765 47.9467 65.9941 48.9574 63.0438 49.0703C56.6013 49.3167 51.6888 52.1714 48.7558 58.6179C48.4911 58.9412 48.2098 58.9705 48.2098 58.9705Z" fill="#F6F7F8"/>
<path id="Vector_46" d="M319.846 303.292C325.14 312.093 326.536 321.775 323.491 331.967C323.913 322.279 322.92 312.841 319.846 303.292Z" fill="#E0E4EA"/>
<path id="Vector_47" d="M233.182 317.008C232.639 319.118 232.096 321.229 231.552 323.339C230.856 323.307 230.16 323.275 229.464 323.242C228.348 320.196 227.232 317.15 225.968 313.7C228.916 314.155 232.228 314.663 235.537 315.19C235.637 315.206 235.803 315.477 235.773 315.524C235.62 315.766 235.413 315.973 234.695 316.124C233.838 316.374 233.51 316.691 233.182 317.008Z" fill="#F7F8F9"/>
<path id="Vector_48" d="M86.9884 338.526C82.5008 334.341 78.0274 329.822 73.7064 325.163C72.5576 323.924 71.8765 322.251 70.9505 320.416C71.6059 320.395 72.4423 320.588 72.9532 321.103C77.0287 325.215 81.1348 329.304 85.0146 333.596C86.0746 334.768 86.3981 336.607 86.9884 338.526Z" fill="#F4F6F7"/>
<path id="Vector_49" d="M67.1977 45.2754C70.9607 38.259 77.0521 37.2868 81.5436 41.0352C81.7917 40.0307 82.0113 39.1415 82.6087 38.1547C82.9866 39.8514 82.9866 41.6456 82.9866 44.3841C77.0211 39.9658 72.1614 42.2156 67.1977 45.2754Z" fill="#F6F7F8"/>
<path id="Vector_50" d="M274.689 191.078C275.367 191.517 275.986 192.188 275.985 192.858C275.971 204.816 275.882 216.773 275.422 228.956C275.01 226.433 275.012 223.686 274.958 220.939C274.762 211.062 274.548 201.186 274.689 191.078Z" fill="#ECEEF2"/>
<path id="Vector_51" d="M109.099 686.677C108.646 686.391 107.96 685.713 108.034 685.132C108.945 677.982 110.027 670.853 110.91 663.7C111.084 662.29 110.601 660.799 110.691 659.098C111.314 661.433 111.926 664.015 111.947 666.602C111.967 669.053 110.674 671.667 111.189 673.929C112.226 678.479 110.885 682.363 109.099 686.677Z" fill="#E8EBEF"/>
<path id="Vector_52" d="M111.932 66.3058C113.792 74.9413 121.144 82.6193 118.416 92.9689C117.69 92.3638 117.175 91.5713 117.031 90.7163C116.372 86.7852 116.009 82.7953 115.172 78.9056C114.29 74.8081 112.991 70.8003 111.932 66.3058Z" fill="#E9ECEF"/>
<path id="Vector_53" d="M102.558 136.161C102.938 144.341 102.946 152.638 102.919 161.395C102.652 153.33 102.419 144.805 102.558 136.161Z" fill="#D9DEE4"/>
<path id="Vector_54" d="M136.111 217.51C132.868 208.689 132.843 199.42 136.408 190.265C136.598 199.274 136.398 208.168 136.111 217.51Z" fill="#E2E6EA"/>
<path id="Vector_55" d="M50.9965 190.561C48.8855 192.447 46.8111 193.934 44.7367 195.421C44.3251 195.193 43.9135 194.964 43.5019 194.735C44.0644 190.591 44.6268 186.446 45.5753 182.172C45.9613 185.135 45.9613 188.228 45.9613 192.659C47.7898 189.964 49.0479 188.109 51.0331 185.183C51.0331 187.631 51.0331 188.897 50.9965 190.561Z" fill="#E0E4EA"/>
<path id="Vector_56" d="M61.9731 290.505C58.9528 283.227 55.9784 275.537 53.0325 267.436C56.047 274.713 59.033 282.403 61.9731 290.505Z" fill="#EDEFF2"/>
<path id="Vector_57" d="M97.0837 794.654C96.6593 794.216 95.8429 793.142 96.1063 792.664C99.8413 785.884 98.834 778.519 99.0256 771.283C99.0698 769.613 99.7706 767.961 100.559 766.184C99.4358 775.441 101.742 785.324 97.0837 794.654Z" fill="#EFF1F4"/>
<path id="Vector_58" d="M179.54 740.275C180.205 750.98 180.505 761.85 180.42 772.946C179.685 772.505 179.033 771.838 179.032 771.171C179.03 760.928 179.113 750.684 179.54 740.275Z" fill="#F3F5F7"/>
<path id="Vector_59" d="M173.787 876.783C173.397 880.943 172.586 884.816 172.069 888.728C171.496 893.062 171.19 897.432 170.401 901.985C170.208 894.927 170.237 887.662 170.683 880.423C170.766 879.067 172.515 877.814 173.787 876.783Z" fill="#EBEDF1"/>
<path id="Vector_60" d="M139.121 238.255C139.634 236.945 140.328 235.964 141.065 234.602C141.826 233.392 142.544 232.563 143.43 231.54C144.753 234.659 145.986 237.568 147.539 241.229C144.392 240.218 141.847 239.401 139.121 238.255Z" fill="#E8EBEF"/>
<path id="Vector_61" d="M48.1603 59.3719C48.2098 58.9705 48.4911 58.9411 48.6321 58.951C49.4689 65.2617 46.6907 70.264 42.4818 74.8481C44.1265 69.8144 46.1186 64.7938 48.1603 59.3719Z" fill="#D6DBE2"/>
<path id="Vector_62" d="M309.083 367.029C309.324 374.594 309.565 382.159 309.42 389.95C308.587 382.642 308.141 375.109 308.164 367.315C308.634 367.055 309.083 367.029 309.083 367.029Z" fill="#F0F2F5"/>
<path id="Vector_63" d="M105.578 177.195C107.491 182.973 109.065 188.88 110.656 195.155C108.861 189.457 107.051 183.391 105.578 177.195Z" fill="#E2E6EA"/>
<path id="Vector_64" d="M57.1581 613.292C60.3691 609.28 63.7994 605.633 67.5782 601.962C68.0594 602.429 68.4612 603.197 68.2851 603.367C64.6889 606.839 61.0266 610.241 57.1581 613.292Z" fill="#F7F8F9"/>
<path id="Vector_65" d="M113.968 470.521C113.096 465.759 112.257 460.623 111.693 455.254C113.127 457.664 114.837 460.22 115.274 462.977C115.634 465.242 114.482 467.747 113.968 470.521Z" fill="#E8EBEF"/>
<path id="Vector_66" d="M160.828 917.718C160.296 919.27 159.677 920.604 158.733 921.641C156.484 924.111 154.082 926.441 151.406 928.948C151.684 923.801 153.787 921.217 160.828 917.718Z" fill="#F1F3F5"/>
<path id="Vector_67" d="M298.901 819.392C300.016 825.643 301.022 832.343 301.975 839.487C300.878 833.235 299.835 826.538 298.901 819.392Z" fill="#E9ECEF"/>
<path id="Vector_68" d="M288.075 575.494C288.117 575.953 287.684 576.003 287.466 576.007C286.571 570.177 285.893 564.343 285.55 558.331C286.6 563.78 287.316 569.407 288.075 575.494Z" fill="#DCE0E6"/>
<path id="Vector_69" d="M216.144 795.568C214.61 795.072 214.655 791.274 211.56 793.705C211.037 792.869 210.13 792.061 210.066 791.191C209.901 788.945 210.107 786.672 210.548 784.252C210.931 786.356 210.931 788.618 210.931 791.922C212.527 790.175 213.413 789.205 214.8 787.685C215.363 790.577 215.81 792.877 216.144 795.568Z" fill="#F8F9FA"/>
<path id="Vector_70" d="M172.52 805.286C172.934 813.386 172.96 821.669 172.943 830.412C172.602 826.882 172.157 822.896 172.044 818.9C171.917 814.428 172.089 809.947 172.52 805.286Z" fill="#FEFEFE"/>
<path id="Vector_71" d="M111.211 404.028C108.681 400.209 106.325 396.02 104.019 391.447C106.508 395.261 108.947 399.46 111.211 404.028Z" fill="#DFE3E9"/>
<path id="Vector_72" d="M25.2071 652.225C27.3801 648.282 29.837 644.621 32.659 640.88C30.5131 644.703 28.002 648.605 25.2071 652.225Z" fill="#EDEFF2"/>
<path id="Vector_73" d="M76.9796 907.533C75.9639 903.571 74.7821 899.229 74.0627 894.811C73.6722 892.413 74.0687 889.886 74.5119 887.253C75.6113 893.766 76.3088 900.443 76.9796 907.533Z" fill="#F7F8F9"/>
<path id="Vector_74" d="M67.8025 667.762C65.6212 671.658 63.1677 675.256 60.3878 678.963C62.551 675.203 65.0407 671.334 67.8025 667.762Z" fill="#F0F2F4"/>
<path id="Vector_75" d="M46.1928 625.247C48.0097 622.293 50.0946 619.641 52.5527 616.965C50.7708 619.81 48.6158 622.68 46.1928 625.247Z" fill="#F7F8F9"/>
<path id="Vector_76" d="M314.712 293.178C316.715 296.027 318.364 299.123 320.055 302.617C318.184 299.818 316.27 296.621 314.712 293.178Z" fill="#F2F4F6"/>
<path id="Vector_77" d="M19.224 662.201C20.6999 658.689 22.4828 655.423 24.5979 652.046C23.1305 655.439 21.3307 658.943 19.224 662.201Z" fill="#EDEFF2"/>
<path id="Vector_78" d="M306.784 526.792C305.327 529.709 303.573 532.367 301.444 535.046C302.875 532.221 304.681 529.378 306.784 526.792Z" fill="#EDEFF2"/>
<path id="Vector_79" d="M155.954 137.695C153.185 138.283 150.388 138.471 147.223 138.877C146.866 138.67 146.876 138.247 147.287 137.541C148.097 136.792 148.506 136.325 148.915 135.858C148.915 135.858 148.875 135.843 148.861 135.826C151.208 136.304 153.567 136.799 155.954 137.695Z" fill="#FAF9F7"/>
<path id="Vector_80" d="M77.9703 591.913C79.3759 589.935 80.7815 587.957 82.5582 585.958C81.4873 588.187 80.0455 590.437 78.2903 592.572C77.9747 592.276 77.9725 592.095 77.9703 591.913Z" fill="#F0F2F5"/>
<path id="Vector_81" d="M137.059 138.633C134.5 135.436 137.353 133.354 139.549 130.963C139.001 133.386 138.077 135.833 137.059 138.633Z" fill="#F4F6F7"/>
<path id="Vector_82" d="M85.2084 584.233C86.3452 581.957 87.7678 579.967 89.5632 577.955C88.4554 580.128 86.9747 582.324 85.2084 584.233Z" fill="#F0F2F5"/>
<path id="Vector_83" d="M139.288 155.801C138.028 153.147 137.118 150.222 136.58 147.18C137.848 149.886 138.743 152.708 139.288 155.801Z" fill="#EEF0F3"/>
<path id="Vector_84" d="M314.771 358.785C313.99 361.047 312.901 363.041 311.442 365.049C312.202 362.881 313.332 360.699 314.771 358.785Z" fill="#E8EBEF"/>
<path id="Vector_85" d="M310.697 517.05C310.293 519.576 309.524 522.187 308.41 524.933C308.82 522.424 309.576 519.78 310.697 517.05Z" fill="#EDEFF2"/>
<path id="Vector_86" d="M72.1957 598.273C73.0335 596.62 74.1386 595.302 75.5953 593.953C74.7856 595.485 73.6244 597.047 72.1957 598.273Z" fill="#F7F8F9"/>
<path id="Vector_87" d="M317.567 353.135C317.196 354.99 316.473 356.915 315.41 358.951C315.786 357.109 316.499 355.157 317.567 353.135Z" fill="#E8EBEF"/>
<path id="Vector_88" d="M68.1827 602.301C69.0234 600.615 70.1117 599.301 71.5691 597.957C70.7689 599.509 69.5996 601.091 68.1827 602.301Z" fill="#F7F8F9"/>
<path id="Vector_89" d="M18.2787 778.803C16.9479 777.971 15.9622 776.874 14.9466 775.41C16.1524 776.209 17.3882 777.374 18.2787 778.803Z" fill="#F2F3F6"/>
<path id="Vector_90" d="M104.916 632.503C104.205 632.273 103.469 631.658 102.402 631.054C102.367 629.989 102.664 628.913 102.961 627.836C103.317 627.877 103.673 627.919 104.03 627.96C104.317 629.345 104.604 630.731 104.916 632.503Z" fill="#E9ECEF"/>
<path id="Vector_91" d="M223.281 901.807C221.949 900.971 220.964 899.873 219.947 898.409C221.152 899.211 222.39 900.378 223.281 901.807Z" fill="#F4F5F7"/>
<path id="Vector_92" d="M41.4516 630.917C41.7923 629.616 42.5009 628.301 43.5699 626.961C43.2268 628.258 42.5231 629.581 41.4516 630.917Z" fill="#F7F8F9"/>
<path id="Vector_93" d="M143.279 162.819C141.946 161.624 140.958 160.179 139.938 158.381C141.146 159.541 142.384 161.055 143.279 162.819Z" fill="#EEF0F3"/>
<path id="Vector_94" d="M165.754 911.783C165.322 913.37 164.559 914.696 163.431 916.045C163.852 914.553 164.638 913.037 165.754 911.783Z" fill="#F1F3F5"/>
<path id="Vector_95" d="M15.2658 774.789C13.9545 773.976 12.9657 772.879 11.9473 771.416C13.1412 772.201 14.3647 773.353 15.2658 774.789Z" fill="#F2F3F6"/>
<path id="Vector_96" d="M59.781 678.799C59.3091 680.37 58.5348 681.696 57.3901 683.025C57.8393 681.537 58.659 680.046 59.781 678.799Z" fill="#F0F2F4"/>
<path id="Vector_97" d="M70.7555 663.774C70.2895 665.318 69.4963 666.591 68.384 667.968C68.8527 666.548 69.6406 665.025 70.7555 663.774Z" fill="#F0F2F4"/>
<path id="Vector_98" d="M73.8585 659.899C73.4276 661.319 72.612 662.672 71.4264 664.049C71.8621 662.659 72.6679 661.245 73.8585 659.899Z" fill="#F0F2F4"/>
<path id="Vector_99" d="M71.2842 319.854C70.2823 318.963 69.6356 317.862 69.031 316.405C69.9285 317.247 70.7839 318.445 71.2842 319.854Z" fill="#F4F6F7"/>
<path id="Vector_100" d="M309.437 367.032C309.083 367.029 308.634 367.055 308.409 367.055C308.992 366.191 309.8 365.326 310.836 364.766C310.64 365.725 310.216 366.38 309.437 367.032Z" fill="#E8EBEF"/>
<path id="Vector_101" d="M286.732 162.792C286.619 163.985 286.148 164.931 285.36 165.981C285.487 164.905 285.93 163.725 286.732 162.792Z" fill="#F4F6F7"/>
<path id="Vector_102" d="M94.8277 637.763C94.3089 638.721 93.5509 639.376 92.4147 640C92.8872 639.132 93.7379 638.296 94.8277 637.763Z" fill="#E9ECEF"/>
<path id="Vector_103" d="M55.2643 615.323C55.3617 614.288 55.7987 613.636 56.5873 612.955C56.4939 613.852 56.0489 614.78 55.2643 615.323Z" fill="#F7F8F9"/>
<path id="Vector_104" d="M83.2603 586.281C83.3614 585.287 83.8002 584.63 84.5941 583.947C84.4988 584.819 84.0483 585.719 83.2603 586.281Z" fill="#F0F2F5"/>
<path id="Vector_105" d="M162.735 915.71C162.64 916.713 162.203 917.369 161.412 918.05C161.503 917.172 161.948 916.267 162.735 915.71Z" fill="#F1F3F5"/>
<path id="Vector_106" d="M77.615 591.949C77.9725 592.095 77.9747 592.276 77.9885 592.728C77.4741 593.513 76.9482 594.026 76.1751 594.24C76.3719 593.289 76.8158 592.636 77.615 591.949Z" fill="#F7F8F9"/>
<path id="Vector_107" d="M53.2643 617.323C53.3617 616.288 53.7987 615.636 54.5873 614.955C54.4939 615.852 54.0489 616.78 53.2643 617.323Z" fill="#F7F8F9"/>
<path id="Vector_108" d="M44.2578 627.287C44.3625 626.291 44.804 625.638 45.5992 624.951C45.5001 625.821 45.0473 626.725 44.2578 627.287Z" fill="#F7F8F9"/>
<path id="Vector_109" d="M222.641 316.126C222.364 315.854 222.249 315.445 222.193 315.029C222.183 314.956 222.415 314.849 222.535 314.758C222.631 315.168 222.727 315.578 222.641 316.126Z" fill="#243F65"/>
<path id="Vector_110" d="M79.2876 924.825C78.634 924.273 78.3316 923.477 77.985 922.319C78.5068 922.832 79.0728 923.706 79.2876 924.825Z" fill="#F2F4F6"/>
<path id="Vector_111" d="M100.735 631.709C100.597 632.683 100.119 633.304 99.3495 634.001C99.5035 633.17 99.9496 632.263 100.735 631.709Z" fill="#E9ECEF"/>
<path id="Vector_112" d="M217.903 318.8C217.554 319.025 217.105 318.999 216.323 318.917C216.147 318.468 216.304 318.078 216.461 317.687C216.908 317.974 217.355 318.262 217.903 318.8Z" fill="#243F65"/>
<path id="Vector_113" d="M18.4579 663.878C18.1524 663.349 18.2366 662.735 18.6273 662.028C18.905 662.554 18.8764 663.174 18.4579 663.878Z" fill="#EDEFF2"/>
<path id="Vector_114" d="M80.2995 926.778C79.6169 926.599 79.2956 926.124 78.9359 925.324C79.4853 925.493 80.0731 925.987 80.2995 926.778Z" fill="#F2F4F6"/>
<path id="Vector_115" d="M332.653 911.925C332.961 912.621 332.819 913.244 332.368 913.971C332.108 913.334 332.155 912.594 332.653 911.925Z" fill="#F4F5F7"/>
<path id="Vector_116" d="M166.53 910.164C166.832 910.68 166.751 911.28 166.368 911.973C166.093 911.46 166.119 910.854 166.53 910.164Z" fill="#F1F3F5"/>
<path id="Vector_117" d="M140.284 157.767C139.618 157.602 139.293 157.128 138.934 156.329C139.475 156.488 140.05 156.974 140.284 157.767Z" fill="#EEF0F3"/>
<path id="Vector_118" d="M220.271 897.84C219.619 897.607 219.305 897.146 219.031 896.367C219.585 896.57 220.096 897.091 220.271 897.84Z" fill="#F4F5F7"/>
<path id="Vector_119" d="M148.559 135.822C148.506 136.325 148.097 136.792 147.368 137.366C147.433 136.911 147.818 136.349 148.559 135.822Z" fill="#BD975E"/>
<path id="Vector_120" d="M307.649 524.921C307.961 525.627 307.821 526.251 307.372 526.973C307.108 526.328 307.153 525.583 307.649 524.921Z" fill="#EDEFF2"/>
<path id="Vector_121" d="M12.308 770.78C11.6158 770.598 11.2946 770.124 10.9357 769.325C11.4917 769.496 12.0853 769.992 12.308 770.78Z" fill="#F2F3F6"/>
<path id="Vector_122" d="M11.255 768.838C10.6207 768.612 10.3039 768.155 10.0327 767.381C10.5763 767.578 11.0744 768.092 11.255 768.838Z" fill="#F2F3F6"/>
<path id="Vector_123" d="M239.445 316.542C239.482 316.603 239.408 316.482 239.445 316.542Z" fill="#243F65"/>
<path id="Vector_124" d="M143.928 163.574C143.625 163.794 143.324 163.672 142.965 163.291C143.249 163.099 143.59 163.166 143.928 163.574Z" fill="#EEF0F3"/>
<path id="Vector_125" d="M150.68 928.812C150.92 929.342 150.743 929.652 150.297 930.028C150.106 929.594 150.185 929.094 150.68 928.812Z" fill="#F1F3F5"/>
<path id="Vector_126" d="M98.6776 633.816C98.9201 634.345 98.7478 634.657 98.3042 635.031C98.1095 634.594 98.1861 634.096 98.6776 633.816Z" fill="#E9ECEF"/>
<path id="Vector_127" d="M284.72 165.847C284.828 166.343 284.558 166.666 283.956 167.063C283.863 166.648 284.103 166.161 284.72 165.847Z" fill="#F4F6F7"/>
<path id="Vector_128" d="M77.9149 921.845C77.725 921.858 77.622 921.614 77.8416 921.227C77.8925 921.279 77.8384 921.447 77.9149 921.845Z" fill="#F2F4F6"/>
<path id="Vector_129" d="M218.432 316.55C218.385 316.477 218.576 316.454 218.576 316.454C218.576 316.454 218.48 316.622 218.432 316.55Z" fill="#243F65"/>
<path id="Vector_130" d="M95.6775 636.816C95.92 637.345 95.7477 637.657 95.3039 638.031C95.1093 637.595 95.186 637.097 95.6775 636.816Z" fill="#E9ECEF"/>
<path id="Vector_131" d="M233.577 316.885C233.51 316.691 233.838 316.374 234.417 316.187C234.437 316.465 234.204 316.614 233.577 316.885Z" fill="#243F65"/>
<path id="Vector_132" d="M96.6776 635.816C96.92 636.345 96.7477 636.657 96.3039 637.031C96.1093 636.595 96.186 636.097 96.6776 635.816Z" fill="#E9ECEF"/>
<path id="Vector_133" d="M101.678 630.818C101.92 631.347 101.748 631.658 101.306 632.031C101.112 631.595 101.188 631.098 101.678 630.818Z" fill="#E9ECEF"/>
<path id="Vector_134" d="M55.4678 167.456C55.4863 167.513 55.4492 167.398 55.4678 167.456Z" fill="#BC965D"/>
<path id="Vector_135" d="M51.4826 184.548C51.4916 184.523 51.4736 184.573 51.4826 184.548Z" fill="#E0E4EA"/>
<path id="Vector_136" d="M97.6776 634.815C97.92 635.345 97.7476 635.657 97.3038 636.031C97.1093 635.594 97.1861 635.096 97.6776 634.815Z" fill="#E9ECEF"/>
<path id="Vector_137" d="M311.659 516.523C311.616 516.563 311.432 516.715 311.055 516.916C311.215 517.082 311.434 516.972 311.659 516.523Z" fill="#EDEFF2"/>
<path id="Vector_138" d="M231.082 627.782C232.841 633.568 234.57 638.946 236.147 644.368C238.385 652.064 242.748 657.674 251.003 659.75C242.172 662.81 232.587 658.37 230.159 649.293C227.806 640.498 226.501 631.406 225.045 622.394C224.256 617.513 224.11 612.527 224.703 607.346C226.797 614.029 228.89 620.711 231.082 627.782Z" fill="#243F65"/>
<path id="Vector_139" d="M201.171 500.446C200.164 501.505 198.841 502.981 197.597 502.916C191.462 502.598 185.349 501.872 178.934 501.262C178.934 504.997 178.934 508.734 178.934 512.848C186.735 514.257 194.28 515.608 201.805 517.058C201.966 517.089 201.906 518.267 202.03 520.116C192.193 518.879 182.757 517.693 172.949 516.459C172.949 509.543 172.949 503.292 172.949 496.709C182.216 497.851 191.554 499.001 201.171 500.446Z" fill="#274267"/>
<path id="Vector_140" d="M213.508 497.126C219.99 496.43 226.077 495.867 232.164 495.303C232.318 495.944 232.473 496.584 232.627 497.224C231.657 497.78 230.746 498.593 229.703 498.834C227.934 499.241 226.065 499.192 224.267 499.501C217.275 500.703 213.869 506.742 217.171 512.922C217.947 514.374 220.962 514.958 223.051 515.296C225.507 515.694 228.077 515.39 231.076 516.584C230.222 517.328 229.459 518.554 228.5 518.733C224.425 519.494 220.306 520.164 216.175 520.441C212.728 520.673 210.407 518.952 210.329 515.197C210.237 510.712 210.029 506.205 210.386 501.749C210.511 500.189 212.16 498.751 213.508 497.126Z" fill="#264066"/>
<path id="Vector_141" d="M223.62 604.926C223.627 604.892 223.613 604.96 223.62 604.926Z" fill="#243F65"/>
<path id="Vector_142" d="M206.706 585.686C206.916 585.73 207.096 585.769 207.277 585.809C207.175 585.809 207.074 585.809 206.81 585.72C206.648 585.63 206.678 585.681 206.706 585.686Z" fill="#18345C"/>
<path id="Vector_143" d="M241.988 802.016C242.318 802.117 242.549 802.313 242.78 802.509C242.511 802.569 242.241 802.629 241.831 802.494C241.691 802.3 241.889 802.11 241.988 802.016Z" fill="#18345C"/>
<path id="Vector_144" d="M146.006 821.005C145.63 821.281 145.111 821.388 144.592 821.496C144.788 821.253 144.984 821.01 145.376 820.637C145.572 820.507 145.864 820.837 146.006 821.005Z" fill="#18345C"/>
<path id="Vector_145" d="M66.9476 187.548C66.5281 187.52 65.9015 187.112 65.8936 186.691C65.5434 168.07 66.0416 149.51 71.2672 131.034C72.0608 134.646 73.8813 138.38 73.4705 141.849C71.6769 156.995 69.2354 172.064 66.9476 187.548Z" fill="#20385A"/>
<path id="Vector_146" d="M201.146 198.98C193.136 201.418 185.783 199.019 179.149 194.986C175.073 192.51 175.436 186.289 179.335 182.158C187.088 173.944 196.943 172.04 207.705 173.351C210.309 173.668 213.152 173.675 215.419 174.78C221.634 177.809 223.336 185.74 216.66 190.014C213.955 190.148 211.986 190.025 210.015 189.929C203.45 189.611 196.865 188.867 190.327 189.166C186.869 189.325 183.495 191.306 180.083 192.464C180.215 192.941 180.348 193.417 180.48 193.894C187.369 195.59 194.257 197.285 201.146 198.98Z" fill="#FCFCFB"/>
<path id="Vector_147" d="M231.502 189.641C226.404 182.229 229.004 176.375 237.691 174.894C245.724 173.524 252.572 175.369 257.842 181.559C260.664 184.874 262.811 188.771 258.583 192.817C253.859 191.185 249.835 189.081 245.641 188.653C241.01 188.181 236.222 189.246 231.502 189.641Z" fill="#FCFBFA"/>
<path id="Vector_148" d="M201.558 198.998C194.257 197.285 187.369 195.59 180.48 193.894C180.348 193.417 180.215 192.941 180.083 192.464C183.495 191.306 186.869 189.325 190.327 189.166C196.865 188.867 203.45 189.611 210.015 189.929C211.986 190.025 213.955 190.148 216.359 190.228C217.603 193.15 216.924 195.508 213.757 196.352C209.868 197.39 205.903 198.14 201.558 198.998Z" fill="#1F3A61"/>
<path id="Vector_149" d="M239.133 208.067C237.017 211.753 234.576 215.348 231.994 218.839C229.929 221.631 224.971 220.64 222.725 217.906C220.105 214.716 216.673 212.193 213.336 209.155C221.439 203.554 229.998 203.287 239.133 208.067Z" fill="#1B375E"/>
<path id="Vector_150" d="M231.367 190.043C236.222 189.246 241.01 188.181 245.641 188.653C249.835 189.081 253.859 191.185 258.221 192.836C251.645 199.714 243.592 198.557 235.509 196.555C232.559 195.825 230.351 194.093 231.367 190.043Z" fill="#1E3960"/>
<path id="Vector_151" d="M164.1 143.747C161.29 142.33 158.64 140.578 155.955 138.441C158.7 139.841 161.481 141.627 164.1 143.747Z" fill="#FAF9F7"/>
<path id="Vector_152" d="M174.732 226.066C174.885 226.376 174.733 226.701 174.303 227.054C174.16 226.748 174.292 226.415 174.732 226.066Z" fill="#18345C"/>
<path id="Vector_153" d="M257 143.999C256.815 144.199 256.634 144.404 256.454 144.609C256.499 144.357 256.545 144.106 256.804 143.938C257.018 144.022 257.004 144.005 257 143.999Z" fill="#18345C"/>
<path id="Vector_154" d="M216.488 248.532C213.563 248.194 211.049 248.057 208.629 247.506C200.536 245.663 198.335 242.863 197.957 233.672C199.944 234.062 201.775 234.549 203.637 234.765C211.705 235.702 219.556 235.159 226.986 231.404C228.128 230.827 229.922 230.452 230.964 230.942C237.087 233.824 243.159 233.754 249.317 231.199C250.868 242.384 248.739 245.819 237.792 247.449C230.94 248.469 223.899 248.222 216.488 248.532Z" fill="#1D3960"/>
<path id="Vector_155" d="M213.08 255.15C210.344 254.083 208.02 253.094 205.695 252.105C205.795 251.837 205.896 251.57 205.996 251.302C212.474 251.614 218.972 252.38 225.426 252.111C231.915 251.84 238.361 250.538 245.618 249.583C235.656 257.882 224.522 256.292 213.08 255.15Z" fill="#2B456A"/>
<path id="Vector_156" d="M187.045 227.952C187.575 228.055 187.978 228.296 188.381 228.538C187.932 228.601 187.482 228.665 186.849 228.549C186.665 228.368 186.918 228.09 187.045 227.952Z" fill="#BD975E"/>
<path id="Vector_157" d="M256.077 227.082C255.682 227.345 255.143 227.442 254.604 227.54C254.808 227.295 255.012 227.05 255.432 226.694C255.649 226.584 255.933 226.918 256.077 227.082Z" fill="#BD975E"/>
<path id="Vector_158" d="M28.9756 754.018C28.6488 753.921 28.4444 753.706 28.24 753.491C28.5044 753.428 28.7688 753.364 29.187 753.481C29.3409 753.662 29.0981 753.9 28.9756 754.018Z" fill="#18345C"/>
<path id="Vector_159" d="M208.844 376.003C208.12 395.592 207.396 414.681 206.67 433.796C199.248 433.796 192.881 433.796 185.391 433.796C186.569 407.758 187.714 382.437 188.87 356.867C195.607 357.415 201.812 357.921 208.844 358.493C208.844 364.263 208.844 369.883 208.844 376.003Z" fill="#19355D"/>
<path id="Vector_160" d="M258.674 423.959C258.583 427.566 258.583 430.696 258.583 434.402C253.925 434.183 249.367 433.969 244.412 433.736C242.769 421.511 242.107 409.415 244.518 397.472C247.032 385.023 249.225 372.656 247.001 359.543C252.377 360.054 257.401 360.533 262.982 361.064C265.149 374.173 264.765 387.229 262.04 400.371C260.464 407.974 259.826 415.771 258.674 423.959Z" fill="#1A365E"/>
</g>
<defs>
<clipPath id="clip0_0_1">
<rect width="335" height="938" fill="white"/>
</clipPath>
</defs>
</svg>
